<svg width="289" height="186" viewBox="0 0 289 186" fill="none" xmlns="http://www.w3.org/2000/svg">
<path fill-rule="evenodd" clip-rule="evenodd" d="M142.09 2.7097C143.559 2.7097 144.302 2.2708 144.321 1.39301V1.35485C144.321 0.448436 143.577 0 142.09 0C121.546 0 104.054 3.99776 89.611 11.9933C75.1685 19.9888 67.9473 31.0757 67.9473 45.2634C67.9473 55.8255 71.7415 64.4985 79.3394 71.2918C86.9278 78.0851 98.3198 81.4818 113.506 81.4818H122.422C134.483 81.4818 144.321 71.5113 144.321 59.289V43.0594C144.321 42.1148 145.084 41.342 146.016 41.342H166.503C176.332 41.342 183.544 42.4774 188.166 44.7387C192.78 46.9999 195.086 50.845 195.086 56.2835C195.086 65.6339 190.765 71.7498 182.132 74.6121C173.498 77.4745 161.438 79.0583 145.959 79.3637C144.491 79.3637 143.747 79.8026 143.728 80.6803V80.7185C143.728 81.6249 144.472 82.0734 145.959 82.0734C166.503 82.0734 183.996 78.0756 198.438 70.0801C212.881 62.0846 220.102 50.9977 220.102 36.8099C220.102 26.2478 216.308 17.5749 208.71 10.7816C201.121 3.98822 189.729 0.591554 174.543 0.591554H165.627C153.567 0.591554 143.728 10.5621 143.728 22.7844V39.014C143.728 39.9585 142.965 40.7314 142.033 40.7314H121.547C111.717 40.7314 104.496 39.596 99.8827 37.3347C95.2694 35.0734 92.9627 31.2283 92.9627 25.7899C92.9627 16.4395 97.2842 10.3236 105.918 7.46121C114.551 4.59886 126.612 3.01502 142.09 2.7097Z" fill="url(#paint0_linear_117_8)"/>
<path fill-rule="evenodd" clip-rule="evenodd" d="M113.694 120.56H141.911C146.609 120.56 150.027 121.638 152.154 123.795C154.282 125.951 155.346 129.414 155.346 134.175V140.988C155.346 145.749 154.282 149.212 152.154 151.369C150.027 153.525 146.609 154.603 141.911 154.603H129.888V148.153C129.888 146.455 131.253 145.071 132.929 145.071H139.228C141.911 145.071 143.257 143.707 143.257 140.988V134.175C143.257 131.456 141.911 130.092 139.228 130.092H125.792V168.209H119.776C116.425 168.209 113.694 165.442 113.694 162.045V120.551V120.56Z" fill="white"/>
<path fill-rule="evenodd" clip-rule="evenodd" d="M76.0351 168.18H62.939L79.255 124.51C80.1682 122.068 82.362 120.531 84.9416 120.531H89.9786C92.5583 120.531 94.752 122.068 95.6652 124.51L111.981 168.18H98.8852L97.0963 163.142L91.1743 145.863L87.4648 134.815L83.7459 145.892L77.5697 163.896L76.054 168.171L76.0351 168.18Z" fill="white"/>
<path fill-rule="evenodd" clip-rule="evenodd" d="M276.018 133.632C276.018 130.922 274.681 129.567 272.007 129.567H260.643C257.969 129.567 256.632 130.922 256.632 133.632V155.309C256.632 158.019 257.969 159.374 260.643 159.374H272.007C274.681 159.374 276.018 158.019 276.018 155.309V133.632ZM259.975 168.867H257.969C253.29 168.867 249.891 167.799 247.773 165.652C245.655 163.505 244.6 160.061 244.6 155.319V133.641C244.6 128.899 245.655 125.455 247.773 123.308C249.891 121.161 253.29 120.093 257.969 120.093H274.681C279.36 120.093 282.759 121.161 284.877 123.308C286.996 125.455 288.05 128.899 288.05 133.641V155.319C288.05 160.061 286.996 163.505 284.877 165.652C282.759 167.799 279.36 168.867 274.681 168.867H259.975Z" fill="white"/>
<path fill-rule="evenodd" clip-rule="evenodd" d="M190.718 168.18H158.688V120.751H195.793V125.092C195.793 127.926 193.514 130.235 190.718 130.235H170.721V139.385H190.445V148.869H170.721V158.696H195.793V163.037C195.793 165.871 193.514 168.18 190.718 168.18Z" fill="white"/>
<path fill-rule="evenodd" clip-rule="evenodd" d="M202.12 144.127C200.933 142.028 200.34 139.213 200.34 135.654V133.622C200.34 128.88 201.395 125.436 203.513 123.289C205.632 121.142 209.03 120.073 213.709 120.073H237.172V124.415C237.172 127.248 234.893 129.557 232.097 129.557H216.383C213.71 129.557 212.373 130.912 212.373 133.622V134.977C212.373 137.686 213.71 139.041 216.383 139.041H228.416C232.784 139.041 235.995 140.081 238.047 142.161C238.603 142.724 239.092 143.383 239.497 144.127C240.683 146.226 241.276 149.04 241.276 152.599V154.632C241.276 159.374 240.222 162.818 238.104 164.965C235.985 167.111 232.586 168.18 227.907 168.18H200.444V163.839C200.444 161.005 202.722 158.696 205.519 158.696H225.224C227.898 158.696 229.235 157.341 229.235 154.632V153.277C229.235 150.567 227.898 149.212 225.224 149.212H213.192C208.823 149.212 205.613 148.172 203.56 146.092C203.005 145.529 202.515 144.871 202.11 144.127H202.12Z" fill="white"/>
<path fill-rule="evenodd" clip-rule="evenodd" d="M1.77944 144.804C0.593154 142.705 0 139.89 0 136.332V134.299C0 129.557 1.05447 126.113 3.17283 123.966C5.29119 121.819 8.68999 120.751 13.3692 120.751H36.8312V125.092C36.8312 127.926 34.5528 130.235 31.7566 130.235H16.0431C13.3692 130.235 12.0323 131.59 12.0323 134.299V135.654C12.0323 138.364 13.3692 139.719 16.0431 139.719H28.0753C32.4439 139.719 35.6543 140.759 37.7068 142.839C38.2623 143.411 38.7519 144.06 39.1567 144.804C40.343 146.903 40.9361 149.718 40.9361 153.277V155.309C40.9361 160.051 39.8816 163.495 37.7633 165.642C35.6449 167.789 32.2462 168.857 27.5669 168.857H0.112975V164.516C0.112975 161.682 2.3914 159.373 5.18763 159.373H24.8931C27.5669 159.373 28.9038 158.019 28.9038 155.309V153.954C28.9038 151.244 27.5669 149.89 24.8931 149.89H12.8608C8.4923 149.89 5.28177 148.85 3.22931 146.77C2.67383 146.207 2.18428 145.548 1.77944 144.804Z" fill="white"/>
<path d="M59.1255 120.76H47.0933V168.19H59.1255V120.76Z" fill="white"/>
<path fill-rule="evenodd" clip-rule="evenodd" d="M276.601 163.934C276.997 163.915 277.185 163.791 277.185 163.553C277.176 163.295 276.968 163.19 276.573 163.209C271.075 163.486 266.452 164.793 262.686 167.131C258.929 169.468 257.141 172.531 257.329 176.328C257.47 179.153 258.6 181.423 260.718 183.141C262.837 184.858 265.934 185.612 269.992 185.402L272.374 185.278C275.603 185.116 278.098 182.311 277.938 179.048L277.778 175.794C277.731 174.849 276.931 174.124 276.008 174.172L271.602 174.392C268.975 174.525 267.026 174.325 265.765 173.781C264.503 173.237 263.835 172.235 263.759 170.785C263.637 168.285 264.71 166.587 266.979 165.709C269.248 164.822 272.459 164.24 276.592 163.944L276.601 163.934Z" fill="white"/>
<defs>
<linearGradient id="paint0_linear_117_8" x1="121.744" y1="4.25537" x2="151.902" y2="52.7194" gradientUnits="userSpaceOnUse">
<stop stop-color="#9BC31F"/>
<stop offset="0.55" stop-color="#0AAAB1"/>
<stop offset="1" stop-color="#2584BF"/>
</linearGradient>
</defs>
</svg>
