<svg width="147" height="147" viewBox="0 0 147 147" fill="none" xmlns="http://www.w3.org/2000/svg">
<g clip-path="url(#clip0_46_111)">
<path d="M112.664 90.7619V104.034C112.664 107.317 109.991 110 106.721 110H23.943C20.6728 110 18 107.317 18 104.034V91.1249C23.5578 90.1701 28.1369 90.1583 31.584 90.399C39.2251 90.9276 46.0132 93.0187 48.0335 89.9492C48.6427 89.0259 48.6152 86.6902 48.5641 82.0188C48.5287 78.9295 48.3204 77.955 48.8471 76.3373C49.4367 74.5264 50.549 73.1178 52.5261 71.366C58.4691 66.1028 62.4193 66.4105 62.8674 64.2405C63.6732 60.3266 51.288 57.0558 51.2998 52.2384C51.3037 50.1868 53.5559 47.3579 63.5906 43.953H75.8187C66.9395 47.3263 64.2785 49.7922 64.4593 51.6229C64.8799 55.8801 82.1036 55.7972 83.7034 63.3646C84.1986 65.7043 83.3575 69.5196 81.4394 72.2656C79.93 74.4277 78.6722 74.6092 77.5717 77.0002C76.6598 78.9768 76.6834 80.6734 76.7227 83.96C76.7698 87.8739 76.7974 89.8308 78.0433 91.0144C79.5527 92.4427 81.9071 92.0008 84.8354 91.5826C84.8354 91.5826 89.442 90.9237 101.627 90.2569C104.323 90.1109 108.077 90.107 112.664 90.7619Z" fill="#C89363"/>
<path d="M62.8674 64.2405C62.4193 66.4105 58.4691 66.1028 52.5261 71.366C50.549 73.1178 49.4367 74.5264 48.8471 76.3373C48.3204 77.955 48.5287 78.9295 48.5641 82.0188C48.6152 86.6902 48.6427 89.0259 48.0335 89.9492C46.0132 93.0187 39.2251 90.9276 31.584 90.399C28.1369 90.1583 23.5578 90.1701 18 91.1249V43.953H63.5907C53.5559 47.3579 51.3037 50.1868 51.2998 52.2384C51.288 57.0558 63.6732 60.3266 62.8674 64.2405Z" fill="#9EC863"/>
<path d="M112.664 43.953V90.7619C108.077 90.107 104.323 90.1109 101.627 90.2569C89.442 90.9237 84.8354 91.5826 84.8354 91.5826C81.9071 92.0008 79.5527 92.4427 78.0434 91.0144C76.7974 89.8308 76.7699 87.8738 76.7227 83.9599C76.6834 80.6734 76.6598 78.9768 77.5717 77.0002C78.6723 74.6092 79.93 74.4277 81.4394 72.2656C83.3575 69.5196 84.1986 65.7043 83.7034 63.3646C82.1036 55.7972 64.8799 55.8801 64.4593 51.6229C64.2785 49.7922 66.9395 47.3263 75.8187 43.953H112.664Z" fill="#9EC863"/>
<path d="M112.664 40.1811V44.02H82.7168L91.4387 37.2457C92.1266 36.713 93.0778 36.6933 93.7853 37.2023L96.8157 39.3762C97.4407 39.826 98.274 39.8655 98.9383 39.4827L106.155 35.3124C106.886 34.8902 107.806 34.9849 108.435 35.5452L112 38.7055C112.42 39.0803 112.664 39.6169 112.664 40.185V40.1811Z" fill="#CCD6DD"/>
<path d="M75.288 43.9535H18V41.4166C18 40.588 18.5149 39.8502 19.2853 39.5662L42.173 31.1229C42.8962 30.8546 43.7098 31.04 44.2523 31.5924L48.7174 36.1494C49.303 36.7452 50.1992 36.9069 50.9539 36.5518L61.9084 31.3714C62.6866 31.0045 63.6103 31.186 64.192 31.8212L75.2841 43.9535H75.288Z" fill="#CCD6DD"/>
<path d="M45.9817 58.9339C45.9817 62.3309 43.533 64.1064 40.3178 64.4536C39.9365 64.497 39.5474 64.5206 39.1465 64.5206C39.3351 64.2879 39.5434 64.0077 39.7518 63.6882C39.8618 63.5146 39.9797 63.3212 40.0937 63.12C41.3476 60.8869 41.4851 58.5946 41.3594 56.1326C41.1275 51.7176 40.0505 47.0067 39.2565 44.0121C42.9866 44.3357 45.9817 55.166 45.9817 58.9299V58.9339Z" fill="#1B692F"/>
<path d="M40.0977 63.1283C39.9797 63.3295 39.8658 63.5189 39.7557 63.6964C39.5435 64.0121 39.3391 64.2961 39.1504 64.5289H39.0875C38.6669 64.5289 38.2542 64.5092 37.8533 64.4618C34.6381 64.1107 32.1894 62.3392 32.1894 58.9421C32.1894 55.119 35.2788 44.0164 39.0875 44.0164C39.1465 44.0164 39.2054 44.0164 39.2605 44.0283C40.0584 47.0229 41.1314 51.7338 41.3633 56.1487C41.4891 58.6107 41.3515 60.903 40.0977 63.1362V63.1283Z" fill="#2B9137"/>
<path d="M40.3178 64.4575V69.6458C40.3178 70.0601 39.9798 70.3994 39.567 70.3994H38.5962C38.1835 70.3994 37.8455 70.0601 37.8455 69.6458V64.4575C38.2464 64.5049 38.6591 64.5246 39.0797 64.5246H39.1425C39.5435 64.5246 39.9326 64.497 40.3139 64.4575H40.3178Z" fill="#BD532A"/>
<path d="M35.1609 62.6821C35.1609 65.4912 33.1406 66.955 30.4835 67.243C30.169 67.2785 29.8467 67.2983 29.5166 67.2983C29.6738 67.1049 29.8428 66.8722 30.0158 66.6118C30.1062 66.4658 30.2044 66.3119 30.2988 66.1422C31.3364 64.2958 31.4504 62.4019 31.3443 60.37C31.1517 56.7244 30.2634 52.8303 29.607 50.3564C32.6885 50.6247 35.1609 59.5691 35.1609 62.6821Z" fill="#1B692F"/>
<path d="M30.2988 66.1462C30.2044 66.3119 30.1062 66.4697 30.0158 66.6157C29.8428 66.88 29.6699 67.1089 29.5166 67.3022H29.4655C29.1157 67.3022 28.7776 67.2864 28.4475 67.247C25.7904 66.9589 23.7701 65.4952 23.7701 62.686C23.7701 59.5296 26.3249 50.3525 29.4694 50.3525C29.5166 50.3525 29.5637 50.3525 29.6148 50.3604C30.2712 52.8342 31.1595 56.7284 31.3521 60.374C31.4583 62.4059 31.3443 64.2997 30.3066 66.1462H30.2988Z" fill="#2B9137"/>
<path d="M30.4795 67.243V71.5278C30.4795 71.8671 30.2005 72.1472 29.8624 72.1472H29.0606C28.7226 72.1472 28.4435 71.8671 28.4435 71.5278V67.243C28.7737 67.2825 29.1156 67.2982 29.4615 67.2982H29.5126C29.8428 67.2982 30.1651 67.2746 30.4795 67.243Z" fill="#BD532A"/>
<path d="M106.281 70.9991C106.281 73.3861 104.575 75.3746 102.319 75.8086C102.02 75.8678 101.717 75.8994 101.399 75.8994C101.08 75.8994 100.778 75.8678 100.487 75.8086C100.365 75.7889 100.247 75.7652 100.133 75.7337C100.255 75.7021 100.373 75.6626 100.487 75.6192C101.183 75.3786 101.812 74.9722 102.319 74.4553C103.199 73.5715 103.745 72.3485 103.745 71.003C103.745 68.7384 102.212 66.8366 100.133 66.2764C100.538 66.1699 100.963 66.1107 101.399 66.1107C104.091 66.1107 106.277 68.3004 106.277 71.003L106.281 70.9991Z" fill="#5AB357"/>
<path d="M103.745 70.9991C103.745 72.3485 103.199 73.5676 102.319 74.4514C101.811 74.9682 101.183 75.3746 100.487 75.6153C100.373 75.6587 100.251 75.6982 100.133 75.7297C98.0539 75.1695 96.5288 73.2599 96.5288 70.9991C96.5288 68.7384 98.0578 66.8327 100.133 66.2724C102.212 66.8327 103.745 68.7344 103.745 70.9991Z" fill="#9EC863"/>
<path d="M101.399 75.8994C101.717 75.8994 102.02 75.8678 102.319 75.8086V78.1443C102.319 78.5073 102.067 78.8072 101.76 78.8072H101.045C100.742 78.8072 100.487 78.5073 100.487 78.1443V75.8086C100.778 75.8678 101.088 75.8994 101.399 75.8994Z" fill="#BD532A"/>
<path d="M42.5778 78.5389C42.5778 80.4879 41.1864 82.1135 39.343 82.4646C39.0993 82.512 38.8517 82.5356 38.5922 82.5356C38.3328 82.5356 38.0852 82.508 37.8454 82.4646C37.7472 82.4488 37.6489 82.4291 37.5546 82.4015C37.6528 82.3739 37.7511 82.3463 37.8454 82.3068C38.4154 82.1095 38.9263 81.7781 39.339 81.3559C40.0583 80.6339 40.5025 79.6357 40.5025 78.5349C40.5025 76.6845 39.2486 75.1339 37.5546 74.6763C37.8847 74.5895 38.2306 74.5421 38.5883 74.5421C40.7855 74.5421 42.57 76.3294 42.57 78.5349L42.5778 78.5389Z" fill="#5AB357"/>
<path d="M40.5104 78.5389C40.5104 79.6397 40.0662 80.6379 39.3469 81.3599C38.9342 81.7821 38.4193 82.1135 37.8533 82.3108C37.759 82.3463 37.6607 82.3778 37.5624 82.4054C35.8644 81.9478 34.6184 80.3893 34.6184 78.5428C34.6184 76.6964 35.8644 75.1418 37.5624 74.6842C39.2604 75.1418 40.5104 76.6924 40.5104 78.5428V78.5389Z" fill="#9EC863"/>
<path d="M38.5962 82.5396C38.8556 82.5396 39.1032 82.512 39.3469 82.4686V84.3742C39.3469 84.6701 39.1386 84.9148 38.891 84.9148H38.3053C38.0577 84.9148 37.8494 84.6701 37.8494 84.3742V82.4686C38.0891 82.5159 38.3407 82.5396 38.5962 82.5396Z" fill="#BD532A"/>
<path d="M96.0257 77.4775C96.0257 79.2214 94.7797 80.6813 93.1289 80.9969C92.9127 81.0403 92.6887 81.064 92.4568 81.064C92.2248 81.064 92.0008 81.0403 91.7886 80.9969C91.7021 80.9811 91.6117 80.9653 91.5291 80.9417C91.6156 80.918 91.706 80.8904 91.7886 80.8588C92.2995 80.6813 92.7594 80.3853 93.1289 80.0066C93.7735 79.3595 94.1705 78.4679 94.1705 77.4815C94.1705 75.8244 93.0503 74.4316 91.5291 74.0253C91.8239 73.9464 92.1384 73.903 92.4568 73.903C94.426 73.903 96.0257 75.5048 96.0257 77.4815V77.4775Z" fill="#5AB357"/>
<path d="M94.1705 77.4776C94.1705 78.4639 93.7735 79.3595 93.1289 80.0026C92.7594 80.3814 92.2995 80.6773 91.7885 80.8549C91.706 80.8864 91.6156 80.914 91.5291 80.9377C90.008 80.5274 88.8917 79.1307 88.8917 77.4736C88.8917 75.8165 90.008 74.4238 91.5291 74.0174C93.0503 74.4277 94.1705 75.8165 94.1705 77.4736V77.4776Z" fill="#9EC863"/>
<path d="M92.4567 81.06C92.6886 81.06 92.9127 81.0364 93.1289 80.993V82.7013C93.1289 82.9657 92.9441 83.1866 92.7201 83.1866H92.1973C91.9733 83.1866 91.7885 82.9696 91.7885 82.7013V80.993C92.0008 81.0364 92.2288 81.06 92.4567 81.06Z" fill="#BD532A"/>
<g clip-path="url(#clip1_46_111)">
<path d="M80.9693 56.6068C77.1727 56.0119 70.0426 54.0936 69.9999 51.4368C69.9603 48.8108 76.8497 45.7197 83.1632 46.0206C90.1592 46.3557 97.3716 50.9 96.9847 53.6525C96.5764 56.5521 87.6942 57.6634 80.9693 56.6068Z" fill="#7DCDEA"/>
</g>
<path d="M99.7923 53.9217C99.7923 57.3188 97.3436 59.0942 94.1284 59.4414C93.7471 59.4848 93.358 59.5085 92.9571 59.5085C93.1458 59.2757 93.3541 58.9956 93.5624 58.676C93.6725 58.5024 93.7904 58.3091 93.9044 58.1079C95.1582 55.8747 95.2958 53.5824 95.17 51.1205C94.9381 46.7055 93.8611 41.9946 93.0671 39C96.7973 39.3235 99.7923 50.1538 99.7923 53.9178V53.9217Z" fill="#1B692F"/>
<path d="M93.9083 58.1158C93.7904 58.317 93.6764 58.5064 93.5663 58.6839C93.3541 58.9996 93.1497 59.2836 92.961 59.5164H92.8981C92.4776 59.5164 92.0649 59.4967 91.6639 59.4493C88.4487 59.0982 86 57.3267 86 53.9296C86 50.1065 89.0894 39.004 92.8981 39.004C92.9571 39.004 93.0161 39.004 93.0711 39.0158C93.869 42.0104 94.942 46.7213 95.1739 51.1363C95.2997 53.5982 95.1622 55.8905 93.9083 58.1237V58.1158Z" fill="#2B9137"/>
<path d="M94.1284 59.4454V64.6337C94.1284 65.0479 93.7904 65.3873 93.3777 65.3873H92.4068C91.9941 65.3873 91.6561 65.0479 91.6561 64.6337V59.4454C92.057 59.4927 92.4697 59.5125 92.8903 59.5125H92.9532C93.3541 59.5125 93.7432 59.4848 94.1245 59.4454H94.1284Z" fill="#BD532A"/>
</g>
<path d="M131.875 125.375L103.124 96.6295C111.457 86.6249 115.613 73.7928 114.726 60.8025C113.839 47.8122 107.978 35.6639 98.3622 26.8848C88.7465 18.1056 76.1164 13.3716 63.0992 13.6674C50.082 13.9632 37.68 19.2662 28.4731 28.4731C19.2662 37.68 13.9632 50.082 13.6674 63.0992C13.3716 76.1164 18.1056 88.7465 26.8848 98.3622C35.6639 107.978 47.8122 113.839 60.8025 114.726C73.7928 115.613 86.6249 111.457 96.6295 103.124L125.375 131.875C125.802 132.302 126.308 132.64 126.866 132.871C127.424 133.102 128.021 133.221 128.625 133.221C129.229 133.221 129.826 133.102 130.384 132.871C130.942 132.64 131.448 132.302 131.875 131.875C132.302 131.448 132.64 130.942 132.871 130.384C133.102 129.826 133.221 129.229 133.221 128.625C133.221 128.021 133.102 127.424 132.871 126.866C132.64 126.308 132.302 125.802 131.875 125.375ZM22.9687 64.3125C22.9687 56.1355 25.3935 48.1421 29.9364 41.3431C34.4793 34.5442 40.9363 29.2451 48.4909 26.1159C56.0455 22.9866 64.3584 22.1679 72.3783 23.7632C80.3982 25.3584 87.7649 29.296 93.5469 35.078C99.329 40.8601 103.267 48.2268 104.862 56.2467C106.457 64.2666 105.638 72.5795 102.509 80.1341C99.3799 87.6886 94.0808 94.1457 87.2819 98.6886C80.4829 103.231 72.4895 105.656 64.3125 105.656C53.3512 105.644 42.8423 101.284 35.0915 93.5335C27.3407 85.7827 22.9809 75.2738 22.9687 64.3125Z" fill="#55ACEE"/>
<defs>
<clipPath id="clip0_46_111">
<rect x="18" y="31" width="94.6638" height="79" rx="39.5" fill="white"/>
</clipPath>
<clipPath id="clip1_46_111">
<rect width="27" height="11" fill="white" transform="translate(70 46)"/>
</clipPath>
</defs>
</svg>
