<svg width="347" height="363" viewBox="0 0 347 363" fill="none" xmlns="http://www.w3.org/2000/svg">
<g clip-path="url(#clip0_111_13)">
<path fill-rule="evenodd" clip-rule="evenodd" d="M0 185.176H46.5202C54.2658 185.176 59.9004 186.928 63.4084 190.433C66.9164 193.938 68.6705 199.568 68.6705 207.307V218.38C68.6705 226.119 66.9164 231.749 63.4084 235.254C59.9004 238.759 54.2658 240.511 46.5202 240.511H26.6983V230.027C26.6983 227.267 28.949 225.018 31.712 225.018H42.0964C46.5202 225.018 48.7399 222.8 48.7399 218.38V207.307C48.7399 202.887 46.5202 200.669 42.0964 200.669H19.9461V262.627H10.0274C4.50145 262.627 0 258.129 0 252.608V185.16L0 185.176Z" fill="#233363"/>
<path fill-rule="evenodd" clip-rule="evenodd" d="M341.769 189.363C338.276 185.873 332.673 184.121 324.958 184.121H297.406C289.692 184.121 284.088 185.873 280.596 189.363C277.103 192.837 275.365 198.436 275.365 206.144V241.395C275.365 249.103 277.103 254.702 280.596 258.191C284.088 261.681 289.692 263.418 297.406 263.418H324.958C332.673 263.418 338.276 261.681 341.769 258.191C345.261 254.702 347 249.103 347 241.395V206.144C347 198.436 345.261 192.837 341.769 189.363ZM327.163 241.395C327.163 245.8 324.958 248.002 320.55 248.002H301.815C297.406 248.002 295.202 245.8 295.202 241.395V206.144C295.202 201.739 297.406 199.537 301.815 199.537H320.55C324.958 199.537 327.163 201.739 327.163 206.144V241.395Z" fill="#233363"/>
<path d="M72.7839 185.067H81.9265C87.4679 185.067 91.9539 189.549 91.9539 195.086V214.332H114.632V195.086C114.632 189.549 119.118 185.067 124.659 185.067H133.802V262.735H124.659C119.118 262.735 114.632 258.253 114.632 252.717V232.09H91.9539V252.717C91.9539 258.253 87.4679 262.735 81.9265 262.735H72.7839V185.067Z" fill="#233363"/>
<path d="M136.891 184.927H150.752C155.673 184.927 160.205 187.579 162.627 191.875L173.958 212.068L185.584 191.782C188.006 187.548 192.507 184.943 197.396 184.943H210.699L183.442 229.624V262.611H164.163V229.624L136.906 184.943L136.891 184.927Z" fill="#233363"/>
<path d="M222.263 184.927H262.062C267.604 184.927 272.09 189.409 272.09 194.946V203.771H252.066V262.611H232.787V203.771H212.236V194.946C212.236 189.409 216.722 184.927 222.263 184.927Z" fill="#233363"/>
<path d="M0 284.308H41.6307C54.3434 284.308 60.692 290.201 60.692 301.973V309.215C60.692 315.745 58.2705 320.273 53.4431 322.832C58.6896 325.391 61.3284 329.749 61.3284 335.922V344.327C61.3284 356.099 55.0109 361.992 42.3758 361.992H0V284.324V284.308ZM19.17 303.136V343.149H38.2313C40.9943 343.149 42.3913 342.327 42.3913 340.698V333.037C42.3913 331.408 40.9632 330.586 38.1382 330.586H31.6964C27.1329 330.586 23.4386 326.895 23.4386 322.336C23.4386 317.776 27.1329 314.085 31.6964 314.085H38.1382C40.9011 314.085 42.2981 313.263 42.2981 311.635V305.571C42.2981 303.942 40.9167 303.12 38.1382 303.12H19.1855L19.17 303.136Z" fill="#233363"/>
<path d="M70.4555 284.448H79.5981C85.1396 284.448 89.6255 288.93 89.6255 294.466V343.288H112.94C118.481 343.288 122.967 347.77 122.967 353.307V362.132H70.471V284.463L70.4555 284.448Z" fill="#233363"/>
<path d="M267.883 284.448H283.25C287.612 284.448 291.477 287.27 292.796 291.411L307.713 338.077L322.537 291.442C323.856 287.286 327.721 284.463 332.083 284.463H347V362.132H329.32V323.515L316.328 362.132H298.54L285.547 323.716V362.132H267.868V284.463L267.883 284.448Z" fill="#233363"/>
<path fill-rule="evenodd" clip-rule="evenodd" d="M250.389 288.806C246.897 285.316 241.293 283.564 233.579 283.564H210.032C203.947 283.564 198.343 285.657 193.904 289.162C190.117 286.185 185.506 284.215 180.446 283.703H154.229C146.515 283.703 140.911 285.456 137.418 288.945C133.926 292.419 132.188 298.018 132.188 305.726V340.977C132.188 348.685 133.926 354.284 137.418 357.774C140.911 361.263 146.515 363 154.229 363H177.776C183.861 363 189.465 360.906 193.904 357.417C197.691 360.395 202.302 362.349 207.362 362.86H233.579C241.293 362.86 246.897 361.123 250.389 357.634C253.882 354.144 255.62 348.546 255.62 340.838V305.586C255.62 297.878 253.882 292.28 250.389 288.806ZM229.171 347.445H210.435C206.073 347.445 203.869 345.289 203.823 340.977V335.255C203.823 329.78 199.383 325.345 193.904 325.345C191.172 325.345 188.689 326.446 186.888 328.245C185.087 330.044 183.985 332.525 183.985 335.255V340.977C183.985 344.622 181.021 347.584 177.373 347.584H158.637C154.99 347.584 152.025 344.622 152.025 340.977V305.726C152.025 302.081 154.99 299.119 158.637 299.119H177.373C181.735 299.119 183.939 301.275 183.985 305.586V311.169C183.985 316.644 188.425 321.08 193.904 321.08C196.636 321.08 199.119 319.963 200.92 318.179C202.721 316.38 203.823 313.915 203.823 311.169V305.586C203.823 301.942 206.787 298.98 210.435 298.98H229.171C232.818 298.98 235.783 301.942 235.783 305.586V340.838C235.783 344.482 232.818 347.445 229.171 347.445Z" fill="#233363"/>
<path fill-rule="evenodd" clip-rule="evenodd" d="M170.31 4.42001C172.732 4.42001 173.958 3.70661 173.989 2.27979V2.21776C173.989 0.744419 172.763 0.0155029 170.31 0.0155029C136.441 0.0155029 107.6 6.51371 83.7892 19.5101C59.978 32.5065 48.0724 50.5278 48.0724 73.5895C48.0724 90.7578 54.3279 104.855 66.8544 115.898C79.3653 126.94 98.1472 132.461 123.185 132.461H137.884C157.768 132.461 173.989 116.254 173.989 96.3875V70.0069C173.989 68.4715 175.246 67.2153 176.783 67.2153H210.559C226.765 67.2153 238.655 69.0609 246.276 72.7365C253.882 76.4121 257.685 82.6621 257.685 91.5022C257.685 106.701 250.56 116.642 236.326 121.295C222.092 125.947 202.208 128.522 176.69 129.018C174.268 129.018 173.042 129.731 173.011 131.158V131.22C173.011 132.694 174.237 133.423 176.69 133.423C210.559 133.423 239.4 126.924 263.211 113.928C287.022 100.932 298.928 82.9103 298.928 59.8486C298.928 42.6803 292.672 28.5828 280.146 17.5405C267.635 6.4982 248.853 0.977051 223.815 0.977051H209.116C189.232 0.977051 173.011 17.1838 173.011 37.0506V63.4312C173.011 64.9666 171.754 66.2228 170.217 66.2228H136.441C120.235 66.2228 108.33 64.3772 100.724 60.7016C93.118 57.026 89.3151 50.776 89.3151 41.9359C89.3151 26.7372 96.4398 16.7961 110.674 12.1434C124.908 7.49077 144.792 4.9163 170.31 4.42001Z" fill="url(#paint0_linear_111_13)"/>
</g>
<defs>
<linearGradient id="paint0_linear_111_13" x1="136.767" y1="6.93245" x2="185.476" y2="86.3287" gradientUnits="userSpaceOnUse">
<stop stop-color="#9BC31F"/>
<stop offset="0.55" stop-color="#0AAAB1"/>
<stop offset="1" stop-color="#2584BF"/>
</linearGradient>
<clipPath id="clip0_111_13">
<rect width="347" height="363" fill="white"/>
</clipPath>
</defs>
</svg>
