<svg width="1094" height="127" viewBox="0 0 1094 127" fill="none" xmlns="http://www.w3.org/2000/svg">
<path fill-rule="evenodd" clip-rule="evenodd" d="M0 0.461182H75.4541C88.0253 0.461182 97.1754 3.30974 102.85 8.97971C108.552 14.6768 111.376 23.7922 111.376 36.353V54.3124C111.376 66.8732 108.525 76.0157 102.85 81.6856C97.1754 87.3828 88.0253 90.2042 75.4541 90.2042H43.3067V73.1942C43.3067 68.7179 46.945 65.0826 51.425 65.0826H68.259C75.4541 65.0826 79.0381 61.5016 79.0381 54.3124V36.353C79.0381 29.1637 75.4541 25.5827 68.259 25.5827H32.3375V126.123H16.2638C7.30376 126.123 0 118.825 0 109.873L0 0.461182Z" fill="white"/>
<path fill-rule="evenodd" clip-rule="evenodd" d="M552.072 8.32863C546.533 2.7943 537.655 0 525.41 0H481.696C469.45 0 460.572 2.76717 455.033 8.32863C449.494 13.8358 446.724 22.7342 446.724 34.9423V90.8553C446.724 103.091 449.494 111.962 455.033 117.496C460.572 123.03 469.45 125.798 481.696 125.798H525.41C537.655 125.798 546.533 123.03 552.072 117.496C557.611 111.962 560.381 103.091 560.381 90.8553V34.9423C560.381 22.707 557.611 13.8358 552.072 8.32863ZM528.912 90.8824C528.912 97.8817 525.41 101.354 518.432 101.354H488.701C481.696 101.354 478.22 97.8546 478.22 90.8824V34.9423C478.22 27.943 481.723 24.4704 488.701 24.4704H518.432C525.437 24.4704 528.912 27.9701 528.912 34.9423V90.8553V90.8824Z" fill="white"/>
<path d="M118.489 0.0541992H133.341C142.328 0.0541992 149.605 7.32479 149.605 16.3045V47.5301H186.395V16.3045C186.395 7.32479 193.672 0.0541992 202.659 0.0541992H217.511V126.069H202.659C193.672 126.069 186.395 118.798 186.395 109.818V76.3412H149.605V109.818C149.605 118.798 142.328 126.069 133.341 126.069H118.489V0.0541992Z" fill="white"/>
<path d="M222.073 0.0541992H244.554C252.537 0.0541992 259.895 4.36772 263.804 11.3128L282.186 44.0576L301.056 11.1229C304.993 4.28634 312.297 0.0541992 320.225 0.0541992H341.811L297.581 72.5431V126.042H266.302V72.5431L222.073 0.0541992Z" fill="white"/>
<path d="M360.572 0.0541992H425.139C434.126 0.0541992 441.403 7.32479 441.403 16.3045V30.6015H408.929V126.069H377.651V30.6015H344.309V16.3045C344.309 7.32479 351.585 0.0541992 360.572 0.0541992Z" fill="white"/>
<path d="M567.63 0.0541992H635.047C655.628 0.0541992 665.919 9.57651 665.919 28.6483V40.368C665.919 50.9212 662.009 58.2732 654.189 62.424C662.688 66.5476 666.95 73.6283 666.95 83.6118V97.2306C666.95 116.302 656.714 125.825 636.269 125.825H567.657V0.0541992H567.63ZM598.664 30.3303V95.1145H629.536C634.016 95.1145 636.269 93.7852 636.269 91.1537V78.7557C636.269 76.1241 633.961 74.7948 629.373 74.7948H618.947C611.561 74.7948 605.588 68.8264 605.588 61.4473C605.588 54.0682 611.561 48.0998 618.947 48.0998H629.373C633.853 48.0998 636.106 46.7705 636.106 44.139V34.3182C636.106 31.6867 633.853 30.3574 629.373 30.3574H598.691L598.664 30.3303Z" fill="white"/>
<path d="M673.603 0.0541992H688.4C697.36 0.0541992 704.637 7.32479 704.637 16.2774V95.3315H742.377C751.337 95.3315 758.614 102.602 758.614 111.555V125.825H673.63V0.0541992H673.603Z" fill="white"/>
<path d="M965.318 0.0541992H990.189C997.249 0.0541992 1003.49 4.61188 1005.64 11.3399L1029.78 86.8944L1053.78 11.367C1055.92 4.63901 1062.17 0.0541992 1069.25 0.0541992H1093.42V125.797H1064.8V63.265L1043.76 125.797H1014.98L993.936 63.6176V125.797H965.318V0.0541992Z" fill="white"/>
<path fill-rule="evenodd" clip-rule="evenodd" d="M950.385 8.3557C944.847 2.82137 935.995 0.0541992 923.777 0.0541992H886.498C876.859 0.0541992 868.008 3.36395 860.975 8.92541C854.975 4.20495 847.671 1.0851 839.661 0.271232H798.174C785.956 0.271232 777.104 3.0384 771.565 8.57273C766.027 14.0799 763.284 22.924 763.284 35.1321V90.9366C763.284 103.145 766.027 111.989 771.565 117.523C777.104 123.057 785.956 125.797 798.174 125.797H835.453C845.092 125.797 853.943 122.488 860.975 116.953C866.976 121.674 874.28 124.767 882.289 125.58H923.777C935.995 125.58 944.847 122.84 950.385 117.306C955.924 111.772 958.667 102.928 958.667 90.7196V34.9151C958.667 22.707 955.924 13.8629 950.385 8.3557ZM916.799 101.191H887.149C880.253 101.191 876.75 97.7731 876.669 90.9638V81.9026C876.669 73.2485 869.637 66.222 860.975 66.222C856.658 66.222 852.721 67.9583 849.87 70.8068C847.02 73.6554 845.282 77.5891 845.282 81.9026V90.9638C845.282 96.7422 840.585 101.436 834.801 101.436H805.152C799.369 101.436 794.671 96.7422 794.671 90.9638V35.1321C794.671 29.3536 799.369 24.6603 805.152 24.6603H834.801C841.698 24.6603 845.2 28.0785 845.282 34.8879V43.732C845.282 52.3862 852.314 59.4126 860.975 59.4126C865.293 59.4126 869.23 57.6492 872.08 54.8278C874.931 51.9793 876.669 48.0727 876.669 43.732V34.8879C876.669 29.1094 881.366 24.4161 887.149 24.4161H916.799C922.582 24.4161 927.279 29.1094 927.279 34.8879V90.6925C927.279 96.471 922.582 101.164 916.799 101.164V101.191Z" fill="white"/>
</svg>
