<svg width="99" height="98" viewBox="0 0 99 98" fill="none" xmlns="http://www.w3.org/2000/svg">
<g clip-path="url(#clip0_7_219)">
<path d="M23.2543 53.9762L52.1316 25.1071L57.9054 30.8809L29.0281 59.7528L23.2543 53.9762Z" fill="#99AAB5"/>
<path d="M23.257 80.9262C22.236 81.9469 20.8514 82.5203 19.4078 82.5203C17.9641 82.5203 16.5795 81.9469 15.5585 80.9262L2.08355 67.4539C1.06287 66.433 0.489487 65.0484 0.489487 63.6047C0.489487 62.161 1.06287 60.7765 2.08355 59.7555L15.5585 46.2778C16.5795 45.2571 17.9641 44.6837 19.4078 44.6837C20.8514 44.6837 22.236 45.2571 23.257 46.2778L36.732 59.7528C37.7527 60.7738 38.3261 62.1583 38.3261 63.602C38.3261 65.0457 37.7527 66.4302 36.732 67.4512L23.257 80.9262ZM67.5258 36.6547C67.0207 37.1603 66.4208 37.5615 65.7606 37.8351C65.1003 38.1088 64.3926 38.2497 63.6779 38.2497C62.9632 38.2497 62.2555 38.1088 61.5953 37.8351C60.935 37.5615 60.3352 37.1603 59.8301 36.6547L46.3551 23.1797C45.3344 22.1587 44.761 20.7742 44.761 19.3305C44.761 17.8868 45.3344 16.5023 46.3551 15.4813L59.8328 2.00628C60.8538 0.9856 62.2383 0.412216 63.682 0.412216C65.1257 0.412216 66.5102 0.9856 67.5312 2.00628L81.0035 15.4813C82.0246 16.5019 82.5984 17.8863 82.5989 19.3299C82.5994 20.7736 82.0266 22.1584 81.0062 23.1797L67.5258 36.6547Z" fill="#55ACEE"/>
<path d="M33.8437 27.9926L29.9945 16.4422C28.7749 12.789 26.1426 12.5903 24.2179 14.5149L16.5195 22.2161C14.5922 24.1407 14.7909 26.7731 18.4441 27.9926L29.9945 31.8418L33.8437 27.9926Z" fill="#99AAB5"/>
<path d="M48.2824 59.7501C47.261 60.7706 45.8763 61.3441 44.4324 61.3446C42.9885 61.3451 41.6034 60.7726 40.5812 59.7528L21.3324 40.504C20.8266 39.9984 20.4254 39.3981 20.1516 38.7374C19.8779 38.0767 19.737 37.3685 19.737 36.6534C19.737 35.9382 19.8779 35.2301 20.1516 34.5694C20.4254 33.9087 20.8266 33.3084 21.3324 32.8028L32.8801 21.2551C33.3857 20.7493 33.9859 20.3481 34.6466 20.0743C35.3073 19.8006 36.0155 19.6597 36.7306 19.6597C37.4458 19.6597 38.154 19.8006 38.8147 20.0743C39.4753 20.3481 40.0756 20.7493 40.5812 21.2551L59.8301 40.504C61.9534 42.63 61.9534 46.0764 59.8274 48.2051L48.2824 59.7501Z" fill="#CCD6DD"/>
<path d="M57.2875 57.3164C51.9737 62.6328 44.2154 63.4931 39.9633 59.2437C35.7112 54.9916 42.348 53.0098 47.6645 47.6933C52.981 42.3768 54.9627 35.7428 59.2149 39.9921C63.4642 44.2442 62.604 51.9999 57.2875 57.3164Z" fill="#CCD6DD"/>
<path d="M76.1906 54.9399C70.4195 49.1633 62.2583 49.6288 56.9418 54.9399C51.628 60.2591 51.1679 68.4149 56.9418 74.1887L76.1906 54.9399ZM68.4921 62.6411L74.266 72.2641L64.6429 66.4903L68.4921 62.6411Z" fill="#99AAB5"/>
<path d="M75.7904 73.7885C75.5377 74.0413 75.2376 74.2418 74.9074 74.3786C74.5772 74.5153 74.2233 74.5857 73.8658 74.5857C73.5084 74.5857 73.1545 74.5153 72.8242 74.3786C72.494 74.2418 72.194 74.0413 71.9412 73.7885C71.6885 73.5358 71.488 73.2358 71.3512 72.9055C71.2144 72.5753 71.144 72.2214 71.144 71.8639C71.144 71.5065 71.2144 71.1526 71.3512 70.8223C71.488 70.4921 71.6885 70.1921 71.9412 69.9393C72.4516 69.4289 73.144 69.1421 73.8658 69.1421C74.5877 69.1421 75.28 69.4289 75.7904 69.9393C76.3009 70.4498 76.5876 71.1421 76.5876 71.8639C76.5876 72.5858 76.3009 73.2781 75.7904 73.7885Z" fill="#99AAB5"/>
<path d="M11.7012 50.1324L15.5558 46.2778L36.732 67.4485L32.8828 71.3004L11.7012 50.1324ZM46.3551 15.4785L50.2043 11.6293L71.3778 32.8028L67.5285 36.652L46.3551 15.4785ZM2.0781 59.7582L5.92733 55.9062L27.1062 77.0742L23.257 80.9235L2.0781 59.7582ZM55.9727 5.85821L59.8192 2.00627L81.0008 23.1715L77.1543 27.0208L55.9727 5.85821Z" fill="#88C9F9"/>
<path d="M22.6908 20.6916C22.4377 20.9444 22.1373 21.1448 21.8067 21.2814C21.4762 21.4181 21.1219 21.4883 20.7642 21.488C20.4065 21.4878 20.0524 21.4171 19.7221 21.28C19.3917 21.1428 19.0916 20.942 18.8388 20.6889C18.5861 20.4358 18.3857 20.1354 18.249 19.8048C18.1124 19.4743 18.0422 19.12 18.0424 18.7624C18.0427 18.4047 18.1134 18.0505 18.2505 17.7202C18.3876 17.3898 18.5884 17.0897 18.8415 16.8369C19.3523 16.3265 20.045 16.0399 20.7671 16.0401C21.4892 16.0404 22.1817 16.3275 22.6921 16.8383C23.2026 17.3491 23.4892 18.0418 23.4889 18.7639C23.4887 19.486 23.2016 20.1812 22.6908 20.6916Z" fill="#99AAB5"/>
<path d="M64.5449 82.84L64.5504 82.7011C64.5682 82.344 64.6561 81.9938 64.8093 81.6707C64.9624 81.3475 65.1778 81.0577 65.4429 80.8178C65.7081 80.5779 66.018 80.3926 66.3548 80.2725C66.6916 80.1523 67.0488 80.0998 67.406 80.1177C67.4495 80.1205 73.2751 80.2892 77.7504 75.8166C82.2067 71.3576 82.0461 65.5484 82.0515 65.4694C82.0253 65.1078 82.0716 64.7446 82.1877 64.401C82.3038 64.0575 82.4874 63.7407 82.7276 63.4691C82.9679 63.1975 83.2599 62.9766 83.5867 62.8195C83.9135 62.6623 84.2683 62.572 84.6305 62.5539C84.9926 62.5357 85.3548 62.5901 85.6956 62.7139C86.0364 62.8376 86.3491 63.0282 86.6153 63.2744C86.8814 63.5207 87.0957 63.8176 87.2456 64.1478C87.3954 64.478 87.4778 64.8348 87.4878 65.1972C87.5205 65.5293 87.8226 73.4401 81.5996 79.6631C75.3712 85.8888 67.4686 85.5703 67.1338 85.554C66.4366 85.5198 65.7791 85.2191 65.2973 84.714C64.8155 84.2089 64.5462 83.538 64.5449 82.84Z" fill="#FFAC33"/>
<path d="M66.0585 92.5256C66.0577 92.0907 66.1613 91.662 66.3606 91.2754C66.5599 90.8889 66.8491 90.5559 67.2039 90.3043C67.5587 90.0528 67.9686 89.8901 68.3993 89.8299C68.8301 89.7697 69.2689 89.8139 69.679 89.9585C69.9703 90.0511 77.5109 92.3895 85.9144 83.9833C94.4267 75.4736 92.4858 67.3069 92.3987 66.9639C92.2213 66.2666 92.3266 65.5275 92.6917 64.9075C93.0568 64.2875 93.652 63.8369 94.3478 63.6537C95.0401 63.4696 95.7771 63.567 96.3979 63.9245C97.0186 64.2821 97.4726 64.8708 97.6607 65.562C97.786 66.0248 100.593 77.0089 89.7663 87.8325C78.8393 98.7649 68.3261 95.2532 67.8851 95.0954C67.3516 94.9095 66.8892 94.5623 66.5619 94.1018C66.2346 93.6414 66.0587 93.0905 66.0585 92.5256Z" fill="#FFAC33"/>
</g>
<defs>
<clipPath id="clip0_7_219">
<rect width="98" height="98" fill="white" transform="translate(0.0772705)"/>
</clipPath>
</defs>
</svg>
