<svg width="710" height="186" viewBox="0 0 710 186" fill="none" xmlns="http://www.w3.org/2000/svg">
<g clip-path="url(#clip0_250_71)">
<path fill-rule="evenodd" clip-rule="evenodd" d="M101.903 3.67022C103.922 3.67022 104.938 3.07991 104.976 1.88645V1.82229C104.976 0.590329 103.947 -0.0128174 101.903 -0.0128174C73.662 -0.0128174 49.6138 5.40267 29.7709 16.2208C9.92791 27.0518 0 42.0662 0 61.2643C0 75.5601 5.22116 87.3022 15.6506 96.4906C26.0929 105.679 41.7435 110.273 62.6153 110.273H74.8709C91.4474 110.273 104.976 96.7857 104.976 80.2441V58.2742C104.976 56.9909 106.018 55.9514 107.304 55.9514H135.467C148.97 55.9514 158.898 57.4786 165.238 60.5456C171.578 63.6127 174.754 68.81 174.754 76.1633C174.754 88.8165 168.826 97.0937 156.956 100.969C145.086 104.845 128.51 106.988 107.227 107.399C105.208 107.399 104.192 107.989 104.153 109.182V109.246C104.153 110.478 105.182 111.082 107.227 111.082C135.467 111.082 159.515 105.666 179.358 94.848C199.214 84.0298 209.129 69.0153 209.129 49.8173C209.129 35.5215 203.908 23.7794 193.479 14.591C183.036 5.40267 167.386 0.808488 146.514 0.808488H134.258C117.682 0.808488 104.153 14.2959 104.153 30.8503V52.8202C104.153 54.1035 103.111 55.143 101.825 55.143H73.662C60.159 55.143 50.2311 53.6159 43.8911 50.5488C37.5512 47.4817 34.3748 42.2844 34.3748 34.9312C34.3748 22.2779 40.3032 14.0007 52.173 10.1252C64.0427 6.24964 80.6193 4.10654 101.903 3.69589V3.67022Z" fill="url(#paint0_linear_250_71)"/>
<path fill-rule="evenodd" clip-rule="evenodd" d="M438.928 20.2374H481.842C488.992 20.2374 494.188 21.8544 497.428 25.0754C500.669 28.3093 502.277 33.4938 502.277 40.6289V50.8182C502.277 57.9533 500.656 63.1378 497.428 66.3717C494.188 69.6056 489.005 71.2097 481.842 71.2097H463.555V61.5465C463.555 59.0056 465.626 56.9395 468.172 56.9395H477.74C481.829 56.9395 483.874 54.8991 483.874 50.8182V40.6289C483.874 36.548 481.829 34.5076 477.74 34.5076H457.305V91.6012H448.162C443.069 91.6012 438.916 87.4561 438.916 82.3743V20.2374H438.928Z" fill="white"/>
<path fill-rule="evenodd" clip-rule="evenodd" d="M381.65 91.5627H361.73L386.55 26.1534C387.939 22.4961 391.282 20.199 395.192 20.199H402.856C406.779 20.199 410.109 22.4961 411.498 26.1534L436.305 91.5627H416.385L413.671 84.0298L404.67 58.1587L399.024 41.6171L393.366 58.21L383.965 85.1719L381.65 91.5755V91.5627Z" fill="white"/>
<path fill-rule="evenodd" clip-rule="evenodd" d="M685.827 39.8076C685.827 35.7524 683.795 33.7248 679.731 33.7248H662.447C658.384 33.7248 656.352 35.7524 656.352 39.8076V72.2749C656.352 76.33 658.384 78.3576 662.447 78.3576H679.731C683.795 78.3576 685.827 76.33 685.827 72.2749V39.8076ZM661.419 92.5765H658.371C651.259 92.5765 646.09 90.9724 642.862 87.7513C639.647 84.5431 638.026 79.3843 638.026 72.2749V39.8076C638.026 32.6982 639.634 27.5522 642.862 24.3311C646.077 21.1229 651.246 19.506 658.371 19.506H683.795C690.907 19.506 696.076 21.1101 699.304 24.3311C702.519 27.5394 704.14 32.6982 704.14 39.8076V72.2749C704.14 79.3843 702.532 84.5303 699.304 87.7513C696.089 90.9595 690.92 92.5765 683.795 92.5765H661.419Z" fill="white"/>
<path fill-rule="evenodd" clip-rule="evenodd" d="M556.083 91.5627H507.369V20.5326H563.799V27.0389C563.799 31.2866 560.327 34.7386 556.083 34.7386H525.669V48.4313H555.671V62.6373H525.669V77.3567H563.799V83.8629C563.799 88.1106 560.327 91.5627 556.083 91.5627Z" fill="white"/>
<path fill-rule="evenodd" clip-rule="evenodd" d="M573.418 55.5407C571.618 52.3967 570.705 48.1747 570.705 42.8618V39.8204C570.705 32.711 572.312 27.565 575.54 24.344C578.755 21.1357 583.925 19.5188 591.049 19.5188H626.736V26.0251C626.736 30.2728 623.263 33.7248 619.02 33.7248H595.113C591.049 33.7248 589.017 35.7524 589.017 39.8076V41.8352C589.017 45.8904 591.049 47.918 595.113 47.918H613.413C620.061 47.918 624.935 49.4708 628.06 52.5892C628.909 53.4361 629.642 54.4243 630.272 55.5279C632.072 58.6591 632.986 62.894 632.986 68.2068V71.2482C632.986 78.3576 631.378 83.5036 628.15 86.7247C624.935 89.9329 619.765 91.5498 612.641 91.5498H570.872V85.0436C570.872 80.7959 574.344 77.3438 578.588 77.3438H608.564C612.628 77.3438 614.66 75.3162 614.66 71.261V69.2334C614.66 65.1782 612.628 63.1506 608.564 63.1506H590.265C583.616 63.1506 578.742 61.5979 575.617 58.4795C574.768 57.6325 574.035 56.6444 573.405 55.5407H573.418Z" fill="white"/>
<path fill-rule="evenodd" clip-rule="evenodd" d="M268.713 56.5545C266.913 53.4233 266 49.1884 266 43.8756V40.8342C266 33.7248 267.607 28.5788 270.835 25.3578C274.05 22.1495 279.22 20.5326 286.344 20.5326H322.031V27.0389C322.031 31.2866 318.559 34.7386 314.315 34.7386H290.408C286.344 34.7386 284.313 36.7662 284.313 40.8214V42.849C284.313 46.9042 286.344 48.9318 290.408 48.9318H308.708C315.357 48.9318 320.231 50.4846 323.356 53.603C324.204 54.4499 324.937 55.4381 325.555 56.5417C327.355 59.6858 328.268 63.9078 328.268 69.2206V72.262C328.268 79.3714 326.661 84.5174 323.433 87.7385C320.218 90.9467 315.048 92.5636 307.924 92.5636H266.154V86.0574C266.154 81.8097 269.627 78.3576 273.87 78.3576H303.847C307.911 78.3576 309.943 76.33 309.943 72.2748V70.2472C309.943 66.192 307.911 64.1644 303.847 64.1644H285.547C278.899 64.1644 274.025 62.6117 270.9 59.4933C270.051 58.6463 269.318 57.6582 268.701 56.5545H268.713Z" fill="white"/>
<path d="M355.943 20.5326H337.643V91.5627H355.943V20.5326Z" fill="white"/>
<path fill-rule="evenodd" clip-rule="evenodd" d="M686.714 85.1976C687.306 85.1719 687.602 84.9794 687.602 84.6201C687.589 84.2351 687.267 84.0683 686.663 84.1068C678.304 84.5174 671.27 86.4809 665.547 89.9843C659.824 93.4876 657.111 98.069 657.394 103.754C657.599 107.989 659.323 111.39 662.55 113.956C665.778 116.523 670.485 117.652 676.658 117.344L680.284 117.164C685.197 116.921 688.991 112.724 688.746 107.822L688.502 102.958C688.425 101.547 687.216 100.456 685.801 100.52L679.101 100.854C675.102 101.059 672.144 100.751 670.215 99.9297C668.286 99.1213 667.27 97.6198 667.167 95.4511C666.974 91.7039 668.62 89.1629 672.067 87.8412C675.526 86.5194 680.4 85.6339 686.689 85.1976H686.714Z" fill="white"/>
<path d="M267.137 147.719C265.71 147.719 264.347 147.488 263.035 147.026C261.723 146.564 260.72 145.961 260 145.23L260.797 143.677C261.479 144.332 262.379 144.883 263.524 145.333C264.668 145.782 265.864 146 267.124 146C268.385 146 269.311 145.846 270.069 145.551C270.828 145.256 271.381 144.845 271.741 144.332C272.101 143.818 272.281 143.254 272.281 142.638C272.281 141.893 272.063 141.29 271.638 140.828C271.214 140.379 270.648 140.02 269.954 139.75C269.259 139.481 268.488 139.25 267.652 139.057C266.816 138.852 265.967 138.647 265.131 138.416C264.295 138.185 263.524 137.889 262.816 137.504C262.109 137.119 261.543 136.619 261.119 135.99C260.694 135.361 260.476 134.54 260.476 133.513C260.476 132.564 260.72 131.691 261.235 130.896C261.736 130.1 262.508 129.458 263.549 128.983C264.591 128.496 265.928 128.252 267.549 128.252C268.629 128.252 269.696 128.406 270.751 128.701C271.805 128.996 272.731 129.42 273.49 129.946L272.809 131.563C271.985 131.011 271.111 130.613 270.185 130.357C269.259 130.1 268.372 129.972 267.51 129.972C266.353 129.972 265.414 130.126 264.655 130.434C263.909 130.742 263.356 131.165 262.996 131.678C262.636 132.204 262.456 132.782 262.456 133.436C262.456 134.181 262.675 134.784 263.099 135.246C263.524 135.708 264.102 136.054 264.797 136.311C265.504 136.568 266.276 136.799 267.112 137.004C267.947 137.196 268.783 137.427 269.619 137.658C270.455 137.889 271.214 138.197 271.921 138.57C272.629 138.942 273.194 139.442 273.619 140.058C274.043 140.674 274.262 141.483 274.262 142.496C274.262 143.42 274.005 144.293 273.49 145.076C272.976 145.872 272.191 146.5 271.15 146.988C270.095 147.476 268.758 147.707 267.112 147.707L267.137 147.719Z" fill="white"/>
<path d="M279.277 130.023C278.878 130.023 278.531 129.895 278.261 129.612C277.991 129.343 277.85 129.009 277.85 128.624C277.85 128.239 277.991 127.918 278.261 127.649C278.531 127.379 278.878 127.251 279.277 127.251C279.676 127.251 280.023 127.379 280.293 127.636C280.563 127.893 280.705 128.213 280.705 128.598C280.705 128.983 280.576 129.33 280.306 129.612C280.036 129.895 279.701 130.023 279.277 130.023ZM278.287 147.565V133.205H280.229V147.565H278.287Z" fill="white"/>
<path d="M289.539 147.694C288.356 147.694 287.225 147.527 286.17 147.193C285.116 146.847 284.28 146.436 283.675 145.923L284.55 144.396C285.141 144.832 285.887 145.204 286.8 145.525C287.713 145.846 288.678 146.013 289.681 146.013C291.057 146.013 292.034 145.794 292.639 145.371C293.243 144.948 293.539 144.37 293.539 143.664C293.539 143.138 293.372 142.727 293.037 142.419C292.703 142.111 292.253 141.893 291.713 141.726C291.16 141.572 290.555 141.444 289.874 141.329C289.192 141.213 288.524 141.085 287.855 140.944C287.186 140.803 286.582 140.584 286.029 140.302C285.476 140.02 285.038 139.635 284.704 139.134C284.37 138.647 284.203 137.992 284.203 137.171C284.203 136.349 284.421 135.682 284.858 135.066C285.296 134.45 285.939 133.963 286.787 133.603C287.636 133.244 288.678 133.064 289.9 133.064C290.825 133.064 291.764 133.193 292.69 133.436C293.616 133.68 294.388 134.001 294.992 134.412L294.143 135.964C293.5 135.528 292.819 135.207 292.086 135.015C291.353 134.822 290.62 134.733 289.887 134.733C288.588 134.733 287.636 134.951 287.019 135.4C286.402 135.849 286.106 136.414 286.106 137.107C286.106 137.658 286.273 138.082 286.607 138.39C286.942 138.698 287.392 138.942 287.945 139.109C288.498 139.288 289.115 139.429 289.784 139.532C290.453 139.648 291.121 139.776 291.79 139.93C292.459 140.084 293.063 140.289 293.629 140.559C294.182 140.828 294.632 141.2 294.966 141.675C295.301 142.163 295.468 142.792 295.468 143.574C295.468 144.409 295.236 145.14 294.773 145.743C294.31 146.359 293.629 146.821 292.742 147.168C291.854 147.501 290.787 147.668 289.527 147.668L289.539 147.694Z" fill="white"/>
<path d="M296.792 134.81V133.193H305.704V134.81H296.792ZM303.595 147.694C302.245 147.694 301.203 147.334 300.47 146.603C299.737 145.872 299.377 144.845 299.377 143.51V130.023H301.319V143.408C301.319 144.242 301.538 144.896 301.962 145.345C302.387 145.807 303.004 146.026 303.814 146.026C304.676 146.026 305.383 145.782 305.949 145.294L306.63 146.693C306.245 147.039 305.782 147.296 305.241 147.463C304.701 147.63 304.148 147.707 303.583 147.707L303.595 147.694Z" fill="white"/>
<path d="M316.288 147.694C314.784 147.694 313.472 147.373 312.34 146.744C311.209 146.115 310.321 145.256 309.678 144.139C309.035 143.035 308.714 141.778 308.714 140.353C308.714 138.929 309.022 137.671 309.627 136.58C310.244 135.49 311.08 134.617 312.147 134.001C313.215 133.372 314.424 133.051 315.748 133.051C317.073 133.051 318.307 133.359 319.349 133.963C320.404 134.566 321.227 135.426 321.831 136.529C322.435 137.633 322.731 138.903 322.731 140.341C322.731 140.43 322.731 140.533 322.718 140.623C322.718 140.726 322.706 140.828 322.706 140.944H310.18V139.494H321.664L320.892 140.071C320.892 139.032 320.674 138.108 320.224 137.286C319.773 136.478 319.169 135.836 318.397 135.387C317.626 134.938 316.738 134.707 315.735 134.707C314.732 134.707 313.858 134.938 313.073 135.387C312.289 135.849 311.672 136.478 311.234 137.299C310.797 138.12 310.579 139.057 310.579 140.122V140.418C310.579 141.508 310.823 142.471 311.312 143.305C311.8 144.139 312.469 144.781 313.343 145.243C314.205 145.705 315.208 145.936 316.314 145.936C317.189 145.936 318.012 145.782 318.77 145.474C319.529 145.166 320.185 144.691 320.725 144.049L321.818 145.307C321.175 146.077 320.378 146.654 319.413 147.065C318.449 147.463 317.394 147.668 316.25 147.668L316.288 147.694Z" fill="white"/>
<path d="M344.722 133.064C345.892 133.064 346.908 133.282 347.782 133.732C348.644 134.181 349.326 134.861 349.814 135.772C350.303 136.683 350.534 137.838 350.534 139.211V147.553H348.593V139.404C348.593 137.889 348.233 136.747 347.512 135.977C346.792 135.207 345.776 134.81 344.452 134.81C343.461 134.81 342.613 135.015 341.893 135.426C341.172 135.836 340.607 136.426 340.221 137.209C339.822 137.979 339.629 138.916 339.629 140.007V147.565H337.687V139.417C337.687 137.902 337.314 136.76 336.594 135.99C335.861 135.22 334.845 134.822 333.521 134.822C332.556 134.822 331.707 135.028 330.974 135.438C330.241 135.849 329.676 136.439 329.29 137.222C328.904 137.992 328.698 138.929 328.698 140.02V147.578H326.756V133.218H328.621V137.107L328.325 136.426C328.763 135.387 329.47 134.566 330.447 133.975C331.425 133.385 332.582 133.09 333.919 133.09C335.321 133.09 336.53 133.436 337.507 134.142C338.497 134.848 339.128 135.9 339.423 137.299L338.652 137.004C339.076 135.836 339.822 134.899 340.889 134.168C341.957 133.449 343.243 133.09 344.747 133.09L344.722 133.064Z" fill="white"/>
<path d="M359.883 147.694C358.803 147.694 357.864 147.514 357.067 147.155C356.27 146.795 355.665 146.308 355.241 145.679C354.817 145.05 354.611 144.319 354.611 143.497C354.611 142.753 354.791 142.073 355.151 141.457C355.511 140.841 356.09 140.353 356.9 139.981C357.71 139.609 358.803 139.417 360.179 139.417H365.143V140.867H360.231C358.842 140.867 357.877 141.111 357.337 141.598C356.797 142.086 356.527 142.702 356.527 143.433C356.527 144.255 356.848 144.909 357.491 145.397C358.134 145.884 359.022 146.141 360.179 146.141C361.337 146.141 362.224 145.884 363.021 145.384C363.819 144.883 364.397 144.165 364.757 143.215L365.195 144.563C364.835 145.512 364.192 146.269 363.291 146.834C362.391 147.399 361.247 147.681 359.883 147.681V147.694ZM364.847 147.553V144.383L364.77 143.857V138.544C364.77 137.325 364.423 136.388 363.741 135.721C363.06 135.066 362.031 134.733 360.681 134.733C359.755 134.733 358.867 134.887 358.019 135.195C357.183 135.503 356.463 135.913 355.884 136.427L355.009 134.976C355.743 134.348 356.617 133.873 357.646 133.539C358.675 133.205 359.742 133.039 360.874 133.039C362.738 133.039 364.179 133.501 365.195 134.425C366.211 135.349 366.712 136.747 366.712 138.621V147.54H364.847V147.553Z" fill="white"/>
<path d="M384.909 147.694C383.533 147.694 382.312 147.386 381.218 146.757C380.125 146.141 379.277 145.268 378.659 144.178C378.042 143.074 377.733 141.803 377.733 140.366C377.733 138.929 378.042 137.633 378.659 136.529C379.277 135.438 380.138 134.579 381.218 133.975C382.312 133.359 383.533 133.064 384.909 133.064C386.17 133.064 387.301 133.347 388.291 133.911C389.282 134.476 390.079 135.297 390.671 136.388C391.262 137.466 391.558 138.801 391.558 140.366C391.558 141.932 391.262 143.241 390.683 144.332C390.092 145.422 389.307 146.256 388.317 146.834C387.327 147.411 386.182 147.694 384.909 147.694ZM385.051 145.974C386.08 145.974 386.993 145.743 387.803 145.281C388.613 144.819 389.256 144.165 389.719 143.318C390.182 142.471 390.413 141.483 390.413 140.379C390.413 139.275 390.182 138.262 389.719 137.427C389.256 136.593 388.613 135.939 387.803 135.477C386.993 135.015 386.067 134.784 385.051 134.784C384.035 134.784 383.135 135.015 382.337 135.477C381.54 135.939 380.897 136.593 380.421 137.427C379.945 138.262 379.714 139.25 379.714 140.379C379.714 141.508 379.945 142.471 380.421 143.318C380.897 144.165 381.54 144.819 382.337 145.281C383.135 145.743 384.048 145.974 385.051 145.974ZM390.478 147.565V143.241L390.671 140.341L390.4 137.44V127.264H392.342V147.565H390.478Z" fill="white"/>
<path d="M403.878 147.694C402.373 147.694 401.061 147.373 399.93 146.744C398.798 146.115 397.911 145.256 397.268 144.139C396.625 143.035 396.303 141.778 396.303 140.353C396.303 138.929 396.612 137.671 397.216 136.58C397.834 135.49 398.669 134.617 399.737 134.001C400.804 133.372 402.013 133.051 403.338 133.051C404.662 133.051 405.897 133.359 406.938 133.963C407.993 134.566 408.816 135.426 409.42 136.529C410.025 137.633 410.321 138.903 410.321 140.341C410.321 140.43 410.321 140.533 410.308 140.623C410.308 140.726 410.295 140.828 410.295 140.944H397.769V139.494H409.253L408.482 140.071C408.482 139.032 408.263 138.108 407.813 137.286C407.363 136.478 406.758 135.836 405.987 135.387C405.215 134.938 404.328 134.707 403.325 134.707C402.322 134.707 401.447 134.938 400.663 135.387C399.878 135.849 399.261 136.478 398.824 137.299C398.387 138.12 398.168 139.057 398.168 140.122V140.418C398.168 141.508 398.412 142.471 398.901 143.305C399.39 144.139 400.058 144.781 400.933 145.243C401.794 145.705 402.798 145.936 403.903 145.936C404.778 145.936 405.601 145.782 406.36 145.474C407.118 145.166 407.774 144.691 408.314 144.049L409.408 145.307C408.765 146.077 407.967 146.654 407.016 147.065C406.051 147.463 404.997 147.668 403.852 147.668L403.878 147.694Z" fill="white"/>
<path d="M421.367 147.565V128.419H424.929V147.565H421.367Z" fill="white"/>
<path d="M438.059 132.756C439.242 132.756 440.297 132.987 441.197 133.436C442.097 133.886 442.83 134.591 443.358 135.541C443.898 136.491 444.168 137.697 444.168 139.186V147.553H440.747V139.622C440.747 138.326 440.451 137.363 439.847 136.722C439.242 136.08 438.381 135.759 437.275 135.759C436.478 135.759 435.757 135.926 435.14 136.247C434.523 136.58 434.034 137.068 433.7 137.71C433.365 138.351 433.198 139.173 433.198 140.161V147.553H429.803V132.949H433.07V136.914L432.491 135.682C432.98 134.745 433.726 134.027 434.703 133.513C435.68 133 436.812 132.743 438.085 132.743L438.059 132.756Z" fill="white"/>
<path d="M446.585 135.798V133.064H456.346V135.798H446.585ZM454.044 147.745C452.437 147.745 451.189 147.334 450.315 146.5C449.44 145.666 449.003 144.447 449.003 142.843V129.715H452.398V142.74C452.398 143.433 452.578 143.972 452.951 144.357C453.311 144.742 453.826 144.935 454.482 144.935C455.227 144.935 455.857 144.742 456.346 144.332L457.336 146.77C456.912 147.103 456.41 147.347 455.832 147.514C455.24 147.681 454.649 147.758 454.044 147.758V147.745Z" fill="white"/>
<path d="M467.046 147.758C465.412 147.758 463.998 147.437 462.776 146.783C461.554 146.128 460.616 145.256 459.947 144.126C459.278 143.01 458.944 141.714 458.944 140.251C458.944 138.788 459.265 137.504 459.921 136.375C460.564 135.259 461.464 134.373 462.609 133.719C463.753 133.077 465.052 132.743 466.518 132.743C467.984 132.743 469.219 133.064 470.325 133.693C471.444 134.322 472.318 135.207 472.961 136.337C473.604 137.466 473.926 138.813 473.926 140.353C473.926 140.482 473.926 140.636 473.913 140.828C473.913 141.021 473.887 141.188 473.874 141.329H461.67V139.057H472.061L470.685 139.763C470.698 138.942 470.531 138.21 470.183 137.556C469.823 136.914 469.335 136.401 468.717 136.054C468.1 135.695 467.367 135.515 466.518 135.515C465.67 135.515 464.962 135.695 464.306 136.054C463.663 136.414 463.162 136.914 462.815 137.569C462.467 138.223 462.287 138.98 462.287 139.84V140.379C462.287 141.252 462.48 142.034 462.879 142.702C463.265 143.382 463.831 143.908 464.564 144.28C465.297 144.652 466.145 144.845 467.11 144.845C467.933 144.845 468.679 144.704 469.335 144.434C469.991 144.165 470.582 143.754 471.084 143.228L472.948 145.358C472.267 146.128 471.431 146.706 470.441 147.103C469.438 147.501 468.306 147.707 467.033 147.707L467.046 147.758Z" fill="white"/>
<path d="M477.244 147.565V127.264H480.639V147.565H477.244Z" fill="white"/>
<path d="M486.889 130.549C486.246 130.549 485.719 130.344 485.307 129.946C484.896 129.548 484.69 129.048 484.69 128.47C484.69 127.918 484.896 127.443 485.307 127.046C485.719 126.648 486.246 126.443 486.889 126.443C487.532 126.443 488.059 126.635 488.471 127.007C488.882 127.379 489.088 127.854 489.088 128.444C489.088 129.035 488.895 129.522 488.484 129.933C488.085 130.344 487.558 130.549 486.889 130.549ZM485.191 147.565V132.962H488.587V147.565H485.191Z" fill="white"/>
<path d="M499.312 146.911C497.897 146.911 496.65 146.616 495.531 146.013C494.412 145.422 493.538 144.601 492.882 143.536C492.239 142.484 491.904 141.252 491.904 139.84C491.904 138.428 492.226 137.171 492.882 136.106C493.525 135.041 494.412 134.219 495.531 133.629C496.65 133.039 497.91 132.756 499.312 132.756C500.559 132.756 501.665 133.013 502.668 133.513C503.671 134.014 504.456 134.784 505.047 135.823C505.626 136.863 505.922 138.21 505.922 139.84C505.922 141.47 505.626 142.766 505.047 143.805C504.456 144.845 503.671 145.628 502.668 146.128C501.665 146.629 500.559 146.898 499.312 146.898V146.911ZM499.749 153.071C498.386 153.071 497.061 152.891 495.788 152.532C494.515 152.172 493.46 151.659 492.624 150.953L494.155 148.412C494.798 148.939 495.595 149.375 496.572 149.696C497.537 150.017 498.54 150.183 499.595 150.183C501.189 150.183 502.359 149.811 503.105 149.08C503.851 148.335 504.224 147.219 504.224 145.73V143.125L504.494 139.84L504.379 136.529V132.949H507.645V145.345C507.645 147.989 506.963 149.94 505.613 151.184C504.263 152.429 502.308 153.058 499.749 153.058V153.071ZM499.839 144.011C500.701 144.011 501.459 143.831 502.141 143.472C502.81 143.112 503.337 142.625 503.723 141.996C504.096 141.367 504.288 140.649 504.288 139.853C504.288 139.057 504.096 138.287 503.723 137.658C503.35 137.042 502.822 136.555 502.141 136.208C501.459 135.862 500.701 135.695 499.839 135.695C498.977 135.695 498.206 135.875 497.524 136.208C496.843 136.555 496.302 137.042 495.929 137.658C495.557 138.274 495.364 139.006 495.364 139.853C495.364 140.7 495.557 141.367 495.929 141.996C496.302 142.625 496.83 143.112 497.524 143.472C498.206 143.831 498.977 144.011 499.839 144.011Z" fill="white"/>
<path d="M519.026 147.758C517.393 147.758 515.978 147.437 514.756 146.783C513.548 146.141 512.609 145.256 511.94 144.126C511.271 143.01 510.937 141.714 510.937 140.251C510.937 138.788 511.258 137.504 511.914 136.375C512.557 135.259 513.458 134.373 514.602 133.719C515.747 133.077 517.045 132.743 518.512 132.743C519.978 132.743 521.212 133.064 522.318 133.693C523.437 134.322 524.311 135.207 524.954 136.337C525.597 137.466 525.919 138.813 525.919 140.353C525.919 140.482 525.919 140.636 525.906 140.828C525.906 141.021 525.88 141.187 525.867 141.329H513.663V139.057H524.054L522.678 139.763C522.691 138.942 522.524 138.21 522.177 137.556C521.817 136.914 521.328 136.401 520.711 136.054C520.093 135.695 519.36 135.515 518.512 135.515C517.663 135.515 516.955 135.695 516.3 136.054C515.657 136.414 515.155 136.914 514.808 137.569C514.461 138.223 514.281 138.98 514.281 139.84V140.379C514.281 141.252 514.474 142.034 514.872 142.702C515.271 143.382 515.824 143.908 516.557 144.28C517.29 144.652 518.139 144.845 519.103 144.845C519.926 144.845 520.672 144.704 521.328 144.434C521.984 144.165 522.575 143.754 523.077 143.228L524.942 145.358C524.26 146.128 523.424 146.706 522.434 147.103C521.431 147.501 520.299 147.707 519.026 147.707V147.758ZM513.188 130.96L516.891 127.212H519.965L523.668 130.96H520.878L517.123 127.816H519.759L516.004 130.96H513.213H513.188Z" fill="white"/>
<path d="M537.506 132.756C538.689 132.756 539.743 132.987 540.643 133.436C541.544 133.886 542.277 134.591 542.817 135.541C543.357 136.491 543.627 137.697 543.627 139.186V147.553H540.193V139.622C540.193 138.326 539.898 137.363 539.293 136.722C538.689 136.08 537.827 135.759 536.721 135.759C535.911 135.759 535.204 135.926 534.586 136.247C533.969 136.58 533.48 137.068 533.146 137.71C532.812 138.351 532.645 139.173 532.645 140.161V147.553H529.25V132.949H532.516V136.914L531.937 135.682C532.426 134.745 533.159 134.027 534.136 133.513C535.114 133 536.245 132.743 537.518 132.743L537.506 132.756Z" fill="white"/>
<path d="M554.687 147.758C553.156 147.758 551.78 147.437 550.584 146.783C549.388 146.141 548.449 145.256 547.768 144.126C547.099 143.01 546.752 141.714 546.752 140.251C546.752 138.788 547.086 137.479 547.768 136.362C548.449 135.246 549.388 134.373 550.584 133.719C551.78 133.077 553.143 132.743 554.687 132.743C556.088 132.743 557.349 133.039 558.442 133.616C559.535 134.206 560.358 135.053 560.911 136.157L558.3 137.684C557.863 137.017 557.323 136.504 556.693 136.17C556.063 135.823 555.381 135.669 554.648 135.669C553.812 135.669 553.053 135.862 552.372 136.234C551.69 136.606 551.163 137.132 550.777 137.825C550.391 138.505 550.198 139.314 550.198 140.251C550.198 141.188 550.391 141.996 550.777 142.689C551.163 143.382 551.69 143.908 552.372 144.293C553.04 144.665 553.799 144.858 554.648 144.858C555.381 144.858 556.063 144.691 556.693 144.357C557.323 144.024 557.863 143.51 558.3 142.817L560.911 144.344C560.371 145.435 559.548 146.282 558.442 146.872C557.349 147.463 556.088 147.758 554.687 147.758Z" fill="white"/>
<path d="M565.618 130.549C564.975 130.549 564.46 130.344 564.036 129.946C563.624 129.548 563.418 129.048 563.418 128.47C563.418 127.918 563.624 127.443 564.036 127.046C564.447 126.648 564.975 126.443 565.618 126.443C566.261 126.443 566.788 126.635 567.199 127.007C567.611 127.379 567.817 127.854 567.817 128.444C567.817 129.035 567.624 129.522 567.212 129.933C566.813 130.344 566.286 130.549 565.618 130.549ZM563.92 147.565V132.962H567.315V147.565H563.92Z" fill="white"/>
<path d="M576.266 147.758C575.16 147.758 574.208 147.565 573.385 147.193C572.562 146.821 571.932 146.295 571.482 145.628C571.032 144.96 570.813 144.216 570.813 143.369C570.813 142.522 571.006 141.803 571.405 141.149C571.803 140.495 572.446 139.968 573.334 139.596C574.234 139.211 575.417 139.019 576.896 139.019H581.152V141.29H577.153C575.996 141.29 575.224 141.483 574.812 141.855C574.401 142.227 574.195 142.702 574.195 143.266C574.195 143.87 574.439 144.344 574.941 144.717C575.43 145.089 576.124 145.268 576.999 145.268C577.873 145.268 578.593 145.076 579.262 144.691C579.931 144.306 580.419 143.741 580.728 142.997L581.281 145.05C580.947 145.91 580.368 146.577 579.519 147.052C578.683 147.527 577.603 147.758 576.291 147.758H576.266ZM580.87 147.565V144.588L580.702 143.985V138.813C580.702 137.812 580.394 137.03 579.789 136.478C579.185 135.926 578.246 135.644 577.012 135.644C576.201 135.644 575.417 135.772 574.632 136.029C573.848 136.285 573.166 136.645 572.601 137.094L571.263 134.604C572.06 134.001 572.999 133.552 574.079 133.231C575.16 132.923 576.278 132.769 577.449 132.769C579.584 132.769 581.23 133.282 582.387 134.296C583.532 135.31 584.11 136.888 584.11 139.006V147.565H580.882H580.87Z" fill="white"/>
<path d="M593.614 147.565L602.256 128.419H605.766L614.434 147.565H610.679L603.272 130.305H604.699L597.266 147.565H593.614ZM597.588 143.138L598.578 140.353H608.917L609.882 143.138H597.6H597.588Z" fill="white"/>
<path d="M616.53 147.565V132.962H619.797V136.978L619.411 135.798C619.835 134.81 620.517 134.065 621.469 133.539C622.42 133.013 623.578 132.756 624.954 132.756V136.016C624.825 136.003 624.696 135.99 624.568 135.977C624.439 135.977 624.323 135.965 624.208 135.965C622.896 135.965 621.854 136.337 621.083 137.081C620.311 137.825 619.925 138.967 619.925 140.507V147.565H616.53Z" fill="white"/>
<path d="M626.072 135.798V133.064H635.833V135.798H626.072ZM633.531 147.745C631.924 147.745 630.676 147.334 629.802 146.5C628.927 145.666 628.49 144.447 628.49 142.843V129.715H631.885V142.74C631.885 143.433 632.065 143.972 632.438 144.357C632.798 144.742 633.312 144.935 633.968 144.935C634.714 144.935 635.344 144.742 635.833 144.332L636.823 146.77C636.399 147.103 635.897 147.347 635.319 147.514C634.727 147.681 634.135 147.758 633.544 147.758L633.531 147.745Z" fill="white"/>
<path d="M641.363 130.549C640.72 130.549 640.206 130.344 639.781 129.946C639.37 129.548 639.164 129.048 639.164 128.47C639.164 127.918 639.37 127.443 639.781 127.046C640.193 126.648 640.72 126.443 641.363 126.443C642.006 126.443 642.533 126.635 642.945 127.007C643.356 127.379 643.562 127.854 643.562 128.444C643.562 129.035 643.369 129.522 642.958 129.933C642.559 130.344 642.032 130.549 641.363 130.549ZM639.666 147.565V132.962H643.061V147.565H639.666Z" fill="white"/>
<path d="M645.646 135.798V133.064H655.406V135.798H645.646ZM648.063 147.565V132.166C648.063 130.613 648.513 129.381 649.413 128.457C650.314 127.533 651.613 127.071 653.297 127.071C653.902 127.071 654.467 127.135 655.008 127.264C655.548 127.392 655.998 127.597 656.358 127.867L655.393 130.408C655.162 130.241 654.866 130.113 654.545 129.997C654.21 129.882 653.876 129.83 653.529 129.83C652.821 129.83 652.281 130.023 651.908 130.421C651.548 130.819 651.368 131.396 651.368 132.153V133.847L651.445 135.349V147.553H648.05L648.063 147.565ZM659.547 130.549C658.904 130.549 658.39 130.344 657.965 129.946C657.554 129.548 657.348 129.048 657.348 128.47C657.348 127.918 657.554 127.443 657.965 127.046C658.377 126.648 658.904 126.443 659.547 126.443C660.19 126.443 660.717 126.635 661.129 127.007C661.54 127.379 661.746 127.854 661.746 128.444C661.746 129.035 661.553 129.522 661.142 129.933C660.743 130.344 660.216 130.549 659.547 130.549ZM657.85 147.565V132.962H661.245V147.565H657.85Z" fill="white"/>
<path d="M672.459 147.758C670.928 147.758 669.552 147.437 668.356 146.783C667.16 146.141 666.221 145.256 665.54 144.126C664.871 143.01 664.524 141.714 664.524 140.251C664.524 138.788 664.858 137.479 665.54 136.362C666.221 135.246 667.16 134.373 668.356 133.719C669.552 133.077 670.915 132.743 672.459 132.743C673.86 132.743 675.121 133.039 676.214 133.616C677.307 134.206 678.13 135.053 678.683 136.157L676.072 137.684C675.635 137.017 675.095 136.504 674.465 136.17C673.835 135.823 673.153 135.669 672.42 135.669C671.584 135.669 670.825 135.862 670.144 136.234C669.462 136.606 668.935 137.132 668.549 137.825C668.163 138.505 667.97 139.314 667.97 140.251C667.97 141.188 668.163 141.996 668.549 142.689C668.935 143.382 669.462 143.908 670.144 144.293C670.812 144.665 671.571 144.858 672.42 144.858C673.153 144.858 673.835 144.691 674.465 144.357C675.095 144.024 675.635 143.51 676.072 142.817L678.683 144.344C678.143 145.435 677.307 146.282 676.214 146.872C675.121 147.463 673.86 147.758 672.459 147.758Z" fill="white"/>
<path d="M683.402 130.549C682.759 130.549 682.245 130.344 681.82 129.946C681.409 129.548 681.203 129.048 681.203 128.47C681.203 127.918 681.409 127.443 681.82 127.046C682.232 126.648 682.759 126.443 683.402 126.443C684.045 126.443 684.572 126.635 684.984 127.007C685.395 127.379 685.601 127.854 685.601 128.444C685.601 129.035 685.408 129.522 684.997 129.933C684.598 130.344 684.071 130.549 683.402 130.549ZM681.705 147.565V132.962H685.1V147.565H681.705Z" fill="white"/>
<path d="M694.038 147.758C692.932 147.758 691.98 147.565 691.157 147.193C690.334 146.821 689.704 146.295 689.254 145.628C688.804 144.96 688.585 144.216 688.585 143.369C688.585 142.522 688.778 141.803 689.176 141.149C689.575 140.495 690.218 139.968 691.105 139.596C692.006 139.211 693.189 139.019 694.668 139.019H698.924V141.29H694.925C693.768 141.29 692.996 141.483 692.584 141.855C692.173 142.227 691.967 142.702 691.967 143.266C691.967 143.87 692.211 144.344 692.713 144.717C693.202 145.089 693.896 145.268 694.771 145.268C695.645 145.268 696.365 145.076 697.034 144.691C697.703 144.306 698.191 143.741 698.5 142.997L699.053 145.05C698.719 145.91 698.14 146.577 697.291 147.052C696.455 147.527 695.375 147.758 694.063 147.758H694.038ZM698.641 147.565V144.588L698.474 143.985V138.813C698.474 137.812 698.166 137.03 697.561 136.478C696.957 135.926 696.018 135.644 694.783 135.644C693.973 135.644 693.189 135.772 692.404 136.029C691.62 136.285 690.938 136.645 690.372 137.094L689.035 134.604C689.832 134.001 690.771 133.552 691.851 133.231C692.932 132.923 694.05 132.769 695.221 132.769C697.355 132.769 699.002 133.282 700.159 134.296C701.303 135.31 701.882 136.888 701.882 139.006V147.565H698.654H698.641Z" fill="white"/>
<path d="M706.254 147.565V127.264H709.649V147.565H706.254Z" fill="white"/>
<path d="M326.281 180.828C324.776 180.828 323.464 180.507 322.333 179.879C321.201 179.25 320.314 178.39 319.671 177.274C319.028 176.17 318.706 174.912 318.706 173.488C318.706 172.063 319.015 170.806 319.619 169.715C320.236 168.624 321.072 167.752 322.14 167.136C323.207 166.507 324.416 166.186 325.74 166.186C327.065 166.186 328.3 166.494 329.341 167.097C330.396 167.7 331.219 168.56 331.823 169.664C332.428 170.767 332.723 172.038 332.723 173.475C332.723 173.565 332.723 173.668 332.711 173.757C332.711 173.86 332.698 173.963 332.698 174.078H320.172V172.628H331.656L330.884 173.206C330.884 172.166 330.666 171.242 330.216 170.421C329.766 169.612 329.161 168.971 328.39 168.522C327.618 168.072 326.731 167.841 325.728 167.841C324.725 167.841 323.85 168.072 323.066 168.522C322.281 168.984 321.664 169.612 321.227 170.434C320.789 171.255 320.571 172.192 320.571 173.257V173.552C320.571 174.643 320.815 175.605 321.304 176.439C321.792 177.274 322.461 177.915 323.336 178.377C324.197 178.839 325.2 179.07 326.306 179.07C327.181 179.07 328.004 178.916 328.763 178.608C329.521 178.3 330.177 177.825 330.717 177.184L331.81 178.441C331.167 179.211 330.37 179.789 329.406 180.199C328.441 180.597 327.387 180.803 326.242 180.803L326.281 180.828Z" fill="white"/>
<path d="M354.714 166.186C355.884 166.186 356.9 166.404 357.775 166.853C358.636 167.302 359.318 167.983 359.806 168.894C360.295 169.805 360.527 170.96 360.527 172.333V180.674H358.585V172.525C358.585 171.011 358.225 169.869 357.505 169.099C356.784 168.329 355.768 167.931 354.444 167.931C353.454 167.931 352.605 168.137 351.885 168.547C351.165 168.958 350.599 169.548 350.213 170.331C349.814 171.101 349.621 172.038 349.621 173.129V180.687H347.68V172.538C347.68 171.024 347.307 169.882 346.586 169.112C345.853 168.342 344.837 167.944 343.513 167.944C342.548 167.944 341.7 168.149 340.967 168.56C340.234 168.971 339.668 169.561 339.282 170.344C338.896 171.114 338.69 172.051 338.69 173.141V180.7H336.749V166.34H338.613V170.228L338.317 169.548C338.755 168.509 339.462 167.687 340.439 167.097C341.417 166.507 342.574 166.212 343.912 166.212C345.313 166.212 346.522 166.558 347.5 167.264C348.49 167.97 349.12 169.022 349.416 170.421L348.644 170.126C349.068 168.958 349.814 168.021 350.882 167.29C351.949 166.571 353.235 166.212 354.74 166.212L354.714 166.186Z" fill="white"/>
<path d="M372.859 180.687V161.54H380.755C382.453 161.54 383.919 161.81 385.128 162.349C386.349 162.888 387.275 163.671 387.944 164.685C388.6 165.711 388.934 166.93 388.934 168.355C388.934 169.779 388.6 170.973 387.944 171.986C387.288 173 386.349 173.783 385.128 174.348C383.919 174.9 382.453 175.182 380.755 175.182H374.866L376.422 173.539V180.7H372.859V180.687ZM376.422 173.899L374.866 172.14H380.588C382.157 172.14 383.34 171.807 384.138 171.139C384.935 170.472 385.334 169.535 385.334 168.329C385.334 167.123 384.935 166.186 384.138 165.519C383.34 164.851 382.157 164.518 380.588 164.518H374.866L376.422 162.772V173.886V173.899Z" fill="white"/>
<path d="M399.312 180.88C397.692 180.88 396.264 180.559 395.055 179.904C393.834 179.263 392.895 178.377 392.226 177.248C391.558 176.131 391.223 174.835 391.223 173.372C391.223 171.909 391.545 170.626 392.2 169.497C392.843 168.38 393.744 167.495 394.888 166.84C396.033 166.199 397.332 165.865 398.798 165.865C400.264 165.865 401.498 166.186 402.604 166.815C403.723 167.444 404.598 168.329 405.241 169.458C405.884 170.588 406.205 171.935 406.205 173.475C406.205 173.603 406.205 173.757 406.192 173.95C406.192 174.142 406.166 174.309 406.154 174.45H393.949V172.179H404.34L402.964 172.885C402.977 172.063 402.81 171.332 402.463 170.678C402.103 170.023 401.614 169.523 400.997 169.176C400.379 168.817 399.646 168.637 398.798 168.637C397.949 168.637 397.242 168.817 396.586 169.176C395.943 169.535 395.441 170.036 395.094 170.69C394.747 171.345 394.567 172.102 394.567 172.962V173.501C394.567 174.373 394.76 175.156 395.158 175.823C395.544 176.504 396.11 177.03 396.843 177.402C397.576 177.774 398.425 177.967 399.389 177.967C400.212 177.967 400.958 177.825 401.614 177.556C402.27 177.286 402.861 176.876 403.363 176.35L405.228 178.48C404.546 179.25 403.71 179.827 402.72 180.225C401.717 180.623 400.585 180.828 399.312 180.828V180.88Z" fill="white"/>
<path d="M414.037 180.88C412.789 180.88 411.619 180.726 410.5 180.405C409.381 180.084 408.494 179.699 407.812 179.237L409.124 176.632C409.78 177.055 410.565 177.402 411.478 177.659C412.391 177.928 413.317 178.056 414.242 178.056C415.297 178.056 416.081 177.915 416.557 177.633C417.046 177.351 417.277 176.966 417.277 176.465C417.277 176.067 417.11 175.759 416.789 175.554C416.454 175.349 416.03 175.182 415.503 175.079C414.975 174.977 414.384 174.874 413.728 174.784C413.072 174.694 412.429 174.566 411.786 174.412C411.13 174.258 410.552 174.027 410.012 173.732C409.471 173.437 409.047 173.026 408.726 172.513C408.391 171.999 408.237 171.319 408.237 170.459C408.237 169.548 408.507 168.753 409.034 168.06C409.561 167.379 410.307 166.84 411.272 166.455C412.236 166.07 413.368 165.878 414.68 165.878C415.644 165.878 416.634 165.993 417.65 166.224C418.666 166.455 419.515 166.763 420.184 167.161L418.846 169.766C418.165 169.369 417.47 169.086 416.763 168.932C416.056 168.778 415.348 168.701 414.654 168.701C413.625 168.701 412.866 168.855 412.352 169.15C411.838 169.446 411.58 169.843 411.58 170.318C411.58 170.754 411.748 171.088 412.069 171.306C412.404 171.524 412.828 171.691 413.355 171.807C413.882 171.922 414.474 172.038 415.13 172.128C415.773 172.23 416.429 172.359 417.059 172.513C417.702 172.667 418.281 172.885 418.821 173.167C419.361 173.449 419.798 173.847 420.12 174.361C420.454 174.874 420.608 175.541 420.608 176.362C420.608 177.299 420.338 178.095 419.798 178.749C419.258 179.417 418.499 179.93 417.522 180.315C416.544 180.687 415.374 180.88 413.998 180.88H414.037Z" fill="white"/>
<path d="M429.778 180.88C428.376 180.88 427.116 180.572 425.997 179.943C424.878 179.327 424.003 178.454 423.36 177.325C422.717 176.208 422.396 174.887 422.396 173.372C422.396 171.858 422.717 170.562 423.36 169.433C424.003 168.303 424.878 167.431 425.997 166.815C427.116 166.199 428.376 165.878 429.778 165.878C431.051 165.878 432.17 166.147 433.134 166.686C434.099 167.225 434.844 168.047 435.397 169.15C435.95 170.254 436.22 171.666 436.22 173.372C436.22 175.079 435.938 176.478 435.372 177.582C434.806 178.698 434.047 179.519 433.083 180.058C432.118 180.597 431.025 180.867 429.778 180.867V180.88ZM430.189 177.979C431.012 177.979 431.758 177.787 432.414 177.402C433.07 177.017 433.597 176.478 433.97 175.785C434.356 175.092 434.549 174.296 434.549 173.372C434.549 172.448 434.356 171.64 433.97 170.947C433.584 170.267 433.07 169.741 432.414 169.356C431.758 168.984 431.012 168.791 430.189 168.791C429.366 168.791 428.659 168.984 427.99 169.356C427.334 169.728 426.807 170.254 426.421 170.947C426.035 171.627 425.842 172.436 425.842 173.372C425.842 174.309 426.035 175.092 426.421 175.785C426.807 176.478 427.321 177.017 427.99 177.402C428.646 177.787 429.379 177.979 430.189 177.979ZM434.497 186V177.299L434.767 173.411L434.652 169.523V166.07H437.918V185.987H434.484L434.497 186Z" fill="white"/>
<path d="M448.605 180.88C447.357 180.88 446.264 180.649 445.312 180.187C444.361 179.725 443.615 179.006 443.075 178.056C442.535 177.107 442.265 175.888 442.265 174.438V166.096H445.724V174.001C445.724 175.297 446.02 176.273 446.624 176.914C447.229 177.556 448.064 177.89 449.145 177.89C449.942 177.89 450.649 177.723 451.254 177.402C451.858 177.068 452.321 176.581 452.656 175.926C452.99 175.272 453.144 174.463 453.144 173.488V166.096H456.565V180.7H453.299V176.735L453.877 177.967C453.389 178.903 452.655 179.622 451.717 180.135C450.765 180.649 449.723 180.905 448.592 180.905L448.605 180.88Z" fill="white"/>
<path d="M462.802 163.671C462.159 163.671 461.632 163.465 461.22 163.068C460.809 162.67 460.603 162.169 460.603 161.592C460.603 161.04 460.809 160.565 461.22 160.167C461.632 159.77 462.159 159.564 462.802 159.564C463.445 159.564 463.959 159.757 464.384 160.129C464.795 160.501 465.001 160.976 465.001 161.566C465.001 162.156 464.795 162.644 464.397 163.055C463.998 163.465 463.471 163.671 462.802 163.671ZM461.105 180.687V166.083H464.5V180.687H461.105Z" fill="white"/>
<path d="M473.579 180.88C472.331 180.88 471.161 180.726 470.042 180.405C468.923 180.084 468.036 179.699 467.354 179.237L468.666 176.632C469.322 177.055 470.107 177.402 471.02 177.659C471.933 177.928 472.859 178.056 473.784 178.056C474.839 178.056 475.623 177.915 476.099 177.633C476.588 177.351 476.819 176.966 476.819 176.465C476.819 176.067 476.652 175.759 476.331 175.554C475.996 175.349 475.572 175.182 475.045 175.079C474.518 174.977 473.926 174.874 473.27 174.784C472.614 174.694 471.971 174.566 471.328 174.412C470.685 174.258 470.094 174.027 469.554 173.732C469.013 173.437 468.589 173.026 468.268 172.513C467.933 171.999 467.779 171.319 467.779 170.459C467.779 169.548 468.049 168.753 468.576 168.06C469.103 167.379 469.849 166.84 470.814 166.455C471.778 166.07 472.91 165.878 474.222 165.878C475.186 165.878 476.176 165.993 477.192 166.224C478.208 166.455 479.057 166.763 479.726 167.161L478.388 169.766C477.707 169.369 477.012 169.086 476.305 168.932C475.598 168.778 474.89 168.701 474.196 168.701C473.167 168.701 472.408 168.855 471.894 169.15C471.38 169.446 471.122 169.843 471.122 170.318C471.122 170.754 471.29 171.088 471.611 171.306C471.946 171.524 472.37 171.691 472.897 171.807C473.424 171.922 474.016 172.038 474.672 172.128C475.315 172.23 475.971 172.359 476.601 172.513C477.244 172.667 477.823 172.885 478.363 173.167C478.903 173.449 479.34 173.847 479.662 174.361C479.996 174.874 480.15 175.541 480.15 176.362C480.15 177.299 479.88 178.095 479.34 178.749C478.8 179.417 478.041 179.93 477.064 180.315C476.086 180.687 474.916 180.88 473.54 180.88H473.579Z" fill="white"/>
<path d="M487.558 180.88C486.452 180.88 485.5 180.687 484.677 180.315C483.854 179.943 483.224 179.417 482.774 178.749C482.324 178.082 482.105 177.338 482.105 176.491C482.105 175.644 482.298 174.925 482.697 174.271C483.095 173.616 483.738 173.09 484.626 172.718C485.526 172.333 486.709 172.14 488.188 172.14H492.444V174.412H488.445C487.288 174.412 486.516 174.604 486.104 174.977C485.693 175.349 485.487 175.823 485.487 176.388C485.487 176.991 485.731 177.466 486.233 177.838C486.722 178.21 487.416 178.39 488.291 178.39C489.165 178.39 489.885 178.198 490.554 177.813C491.223 177.428 491.711 176.863 492.02 176.119L492.573 178.172C492.239 179.032 491.66 179.699 490.811 180.174C489.975 180.649 488.895 180.88 487.583 180.88H487.558ZM492.162 180.687V177.71L491.994 177.107V171.935C491.994 170.934 491.686 170.151 491.081 169.6C490.477 169.048 489.538 168.765 488.304 168.765C487.493 168.765 486.709 168.894 485.924 169.15C485.14 169.407 484.458 169.766 483.893 170.215L482.555 167.726C483.352 167.123 484.304 166.674 485.371 166.353C486.452 166.045 487.57 165.891 488.741 165.891C490.875 165.891 492.522 166.404 493.679 167.418C494.824 168.432 495.402 170.01 495.402 172.128V180.687H492.174H492.162Z" fill="white"/>
<path d="M504.918 180.687L513.56 161.54H517.071L525.739 180.687H521.984L514.576 163.427H516.004L508.571 180.687H504.918ZM508.892 176.26L509.882 173.475H520.222L521.186 176.26H508.905H508.892Z" fill="white"/>
<path d="M546.276 165.891C547.446 165.891 548.488 166.122 549.388 166.571C550.289 167.02 551.009 167.726 551.51 168.676C552.025 169.625 552.282 170.831 552.282 172.32V180.687H548.887V172.756C548.887 171.46 548.604 170.498 548.025 169.856C547.446 169.215 546.636 168.894 545.569 168.894C544.823 168.894 544.154 169.061 543.588 169.381C543.01 169.715 542.573 170.203 542.251 170.844C541.93 171.486 541.762 172.294 541.762 173.27V180.687H538.367V172.756C538.367 171.46 538.084 170.498 537.506 169.856C536.927 169.215 536.117 168.894 535.049 168.894C534.304 168.894 533.635 169.061 533.056 169.381C532.477 169.715 532.04 170.203 531.719 170.844C531.397 171.486 531.23 172.294 531.23 173.27V180.687H527.835V166.083H531.101V169.997L530.497 168.817C530.986 167.88 531.706 167.161 532.645 166.648C533.583 166.135 534.677 165.878 535.898 165.878C537.261 165.878 538.457 166.212 539.46 166.892C540.463 167.559 541.132 168.611 541.467 170.01L540.155 169.523C540.605 168.445 541.389 167.572 542.483 166.892C543.576 166.212 544.849 165.878 546.289 165.878L546.276 165.891Z" fill="white"/>
<path d="M556.693 180.687V160.385H560.088V169.471L559.818 173.36L559.959 177.248V180.7H556.693V180.687ZM564.782 180.88C563.56 180.88 562.454 180.61 561.464 180.071C560.474 179.532 559.715 178.711 559.175 177.594C558.635 176.478 558.365 175.079 558.365 173.385C558.365 171.691 558.648 170.267 559.213 169.163C559.779 168.06 560.551 167.238 561.515 166.699C562.48 166.16 563.573 165.891 564.782 165.891C566.209 165.891 567.47 166.199 568.588 166.828C569.707 167.444 570.582 168.316 571.238 169.446C571.881 170.575 572.215 171.897 572.215 173.385C572.215 174.874 571.893 176.221 571.238 177.338C570.582 178.454 569.707 179.327 568.588 179.956C567.47 180.584 566.196 180.892 564.782 180.892V180.88ZM564.37 177.979C565.206 177.979 565.952 177.787 566.608 177.415C567.251 177.043 567.778 176.504 568.164 175.798C568.55 175.092 568.743 174.284 568.743 173.372C568.743 172.461 568.55 171.64 568.164 170.947C567.778 170.267 567.264 169.741 566.608 169.356C565.965 168.984 565.219 168.791 564.37 168.791C563.522 168.791 562.84 168.984 562.171 169.356C561.515 169.728 560.988 170.254 560.602 170.947C560.217 171.627 560.024 172.436 560.024 173.372C560.024 174.309 560.217 175.092 560.602 175.798C560.988 176.504 561.503 177.043 562.171 177.415C562.827 177.787 563.56 177.979 564.37 177.979Z" fill="white"/>
<path d="M577.204 163.671C576.561 163.671 576.034 163.465 575.623 163.068C575.211 162.67 575.005 162.169 575.005 161.592C575.005 161.04 575.211 160.565 575.623 160.167C576.034 159.77 576.561 159.564 577.204 159.564C577.847 159.564 578.375 159.757 578.786 160.129C579.198 160.501 579.403 160.976 579.403 161.566C579.403 162.156 579.211 162.644 578.799 163.055C578.4 163.465 577.873 163.671 577.204 163.671ZM575.507 180.687V166.083H578.902V180.687H575.507Z" fill="white"/>
<path d="M590.309 180.88C588.675 180.88 587.261 180.559 586.039 179.904C584.83 179.263 583.892 178.377 583.223 177.248C582.554 176.131 582.22 174.835 582.22 173.372C582.22 171.909 582.541 170.626 583.197 169.497C583.84 168.38 584.74 167.495 585.885 166.84C587.029 166.199 588.328 165.865 589.794 165.865C591.26 165.865 592.495 166.186 593.601 166.815C594.72 167.444 595.594 168.329 596.237 169.458C596.88 170.588 597.202 171.935 597.202 173.475C597.202 173.603 597.202 173.757 597.189 173.95C597.189 174.142 597.163 174.309 597.15 174.45H584.946V172.179H595.337L593.961 172.885C593.974 172.063 593.807 171.332 593.459 170.678C593.099 170.023 592.611 169.523 591.993 169.176C591.376 168.817 590.643 168.637 589.794 168.637C588.946 168.637 588.238 168.817 587.582 169.176C586.939 169.535 586.438 170.036 586.091 170.69C585.743 171.345 585.563 172.102 585.563 172.962V173.501C585.563 174.373 585.756 175.156 586.155 175.823C586.554 176.504 587.107 177.03 587.84 177.402C588.573 177.774 589.421 177.967 590.386 177.967C591.209 177.967 591.955 177.825 592.611 177.556C593.266 177.286 593.858 176.876 594.36 176.35L596.224 178.48C595.543 179.25 594.707 179.827 593.717 180.225C592.713 180.623 591.582 180.828 590.309 180.828V180.88Z" fill="white"/>
<path d="M608.789 165.891C609.972 165.891 611.026 166.122 611.927 166.571C612.827 167.02 613.56 167.726 614.1 168.676C614.64 169.625 614.91 170.831 614.91 172.32V180.687H611.477V172.756C611.477 171.46 611.181 170.498 610.576 169.856C609.972 169.215 609.11 168.894 608.004 168.894C607.194 168.894 606.487 169.061 605.87 169.381C605.252 169.715 604.764 170.203 604.429 170.844C604.095 171.486 603.928 172.307 603.928 173.295V180.687H600.533V166.083H603.799V170.049L603.22 168.817C603.709 167.88 604.442 167.161 605.42 166.648C606.397 166.135 607.529 165.878 608.802 165.878L608.789 165.891Z" fill="white"/>
<path d="M617.315 168.932V166.199H627.076V168.932H617.315ZM624.774 180.88C623.166 180.88 621.919 180.469 621.044 179.635C620.17 178.801 619.733 177.582 619.733 175.977V162.849H623.128V175.875C623.128 176.568 623.308 177.107 623.681 177.492C624.041 177.877 624.555 178.069 625.211 178.069C625.957 178.069 626.587 177.877 627.076 177.466L628.066 179.904C627.641 180.238 627.14 180.482 626.561 180.649C625.97 180.815 625.378 180.892 624.787 180.892L624.774 180.88Z" fill="white"/>
<path d="M635.306 180.88C634.2 180.88 633.249 180.687 632.426 180.315C631.602 179.943 630.972 179.417 630.522 178.749C630.072 178.082 629.854 177.338 629.854 176.491C629.854 175.644 630.046 174.925 630.445 174.271C630.844 173.616 631.487 173.09 632.374 172.718C633.274 172.333 634.457 172.14 635.936 172.14H640.193V174.412H636.193C635.036 174.412 634.264 174.604 633.853 174.977C633.441 175.349 633.236 175.823 633.236 176.388C633.236 176.991 633.48 177.466 633.982 177.838C634.47 178.21 635.165 178.39 636.039 178.39C636.914 178.39 637.634 178.198 638.302 177.813C638.971 177.428 639.46 176.863 639.769 176.119L640.322 178.172C639.987 179.032 639.408 179.699 638.56 180.174C637.724 180.649 636.644 180.88 635.332 180.88H635.306ZM639.91 180.687V177.71L639.743 177.107V171.935C639.743 170.934 639.434 170.151 638.83 169.6C638.225 169.048 637.287 168.765 636.052 168.765C635.242 168.765 634.457 168.894 633.673 169.15C632.888 169.407 632.207 169.766 631.641 170.215L630.304 167.726C631.101 167.123 632.04 166.674 633.12 166.353C634.2 166.045 635.319 165.891 636.489 165.891C638.624 165.891 640.27 166.404 641.428 167.418C642.572 168.432 643.151 170.01 643.151 172.128V180.687H639.923H639.91Z" fill="white"/>
<path d="M647.523 180.687V160.385H650.918V180.687H647.523Z" fill="white"/>
</g>
<defs>
<linearGradient id="paint0_linear_250_71" x1="73.9449" y1="5.76199" x2="114.484" y2="71.9276" gradientUnits="userSpaceOnUse">
<stop stop-color="#BED00F"/>
<stop offset="0.55" stop-color="#00AAA9"/>
<stop offset="1" stop-color="#067EBE"/>
</linearGradient>
<clipPath id="clip0_250_71">
<rect width="710" height="186" fill="white"/>
</clipPath>
</defs>
</svg>
