<svg width="349" height="222" viewBox="0 0 349 222" fill="none" xmlns="http://www.w3.org/2000/svg">
<path fill-rule="evenodd" clip-rule="evenodd" d="M172.637 3.89034C174.412 3.89034 175.311 3.36704 175.333 2.32045V2.27494C175.333 1.19422 174.435 0.659546 172.637 0.659546C147.815 0.659546 126.678 5.42611 109.227 14.9592C91.7763 24.4924 83.0509 37.7113 83.0509 54.6275C83.0509 67.2208 87.6355 77.5616 96.8159 85.6613C105.985 93.7611 119.75 97.8109 138.1 97.8109H148.873C163.445 97.8109 175.333 85.923 175.333 71.3503V51.9996C175.333 50.8734 176.255 49.9519 177.381 49.9519H202.135C214.012 49.9519 222.726 51.3057 228.312 54.0018C233.886 56.6979 236.673 61.2825 236.673 67.7668C236.673 78.9153 231.451 86.2074 221.02 89.6202C210.588 93.033 196.015 94.9214 177.313 95.2855C175.538 95.2855 174.639 95.8088 174.617 96.8554V96.9009C174.617 97.9816 175.515 98.5163 177.313 98.5163C202.135 98.5163 223.272 93.7497 240.723 84.2166C258.174 74.6834 266.899 61.4645 266.899 44.5483C266.899 31.955 262.315 21.6142 253.134 13.5145C243.965 5.41473 230.2 1.36486 211.85 1.36486H201.077C186.505 1.36486 174.617 13.2528 174.617 27.8255V47.1762C174.617 48.3024 173.695 49.2239 172.569 49.2239H147.815C135.938 49.2239 127.213 47.8701 121.638 45.174C116.064 42.4779 113.277 37.8933 113.277 31.409C113.277 20.2605 118.499 12.9684 128.93 9.55561C139.362 6.1428 153.935 4.25437 172.637 3.89034Z" fill="url(#paint0_linear_1_68)"/>
<path fill-rule="evenodd" clip-rule="evenodd" d="M138.327 143.884H172.421C178.098 143.884 182.227 145.17 184.798 147.741C187.369 150.312 188.655 154.441 188.655 160.118V168.24C188.655 173.917 187.369 178.046 184.798 180.617C182.227 183.188 178.098 184.474 172.421 184.474H157.894V176.784C157.894 174.759 159.544 173.109 161.568 173.109H169.179C172.421 173.109 174.048 171.482 174.048 168.24V160.118C174.048 156.875 172.421 155.249 169.179 155.249H152.945V200.696H145.676C141.626 200.696 138.327 197.397 138.327 193.347V143.873V143.884Z" fill="#233363"/>
<path fill-rule="evenodd" clip-rule="evenodd" d="M92.8231 200.662H76.9991L96.7137 148.594C97.8172 145.681 100.468 143.85 103.585 143.85H109.671C112.788 143.85 115.439 145.681 116.542 148.594L136.257 200.662H120.433L118.271 194.655L111.116 174.053L106.634 160.88L102.14 174.087L94.6774 195.554L92.8459 200.65L92.8231 200.662Z" fill="#233363"/>
<path fill-rule="evenodd" clip-rule="evenodd" d="M334.462 159.469C334.462 156.238 332.846 154.623 329.615 154.623H315.885C312.654 154.623 311.038 156.238 311.038 159.469V185.316C311.038 188.546 312.654 190.162 315.885 190.162H329.615C332.846 190.162 334.462 188.546 334.462 185.316V159.469ZM315.077 201.481H312.654C307 201.481 302.893 200.207 300.333 197.647C297.774 195.088 296.5 190.981 296.5 185.327V159.481C296.5 153.827 297.774 149.72 300.333 147.16C302.893 144.601 307 143.327 312.654 143.327H332.846C338.5 143.327 342.607 144.601 345.166 147.16C347.726 149.72 349 153.827 349 159.481V185.327C349 190.981 347.726 195.088 345.166 197.647C342.607 200.207 338.5 201.481 332.846 201.481H315.077Z" fill="#233363"/>
<path fill-rule="evenodd" clip-rule="evenodd" d="M231.395 200.662H192.693V144.111H237.526V149.288C237.526 152.666 234.773 155.419 231.395 155.419H207.232V166.329H231.065V177.637H207.232V189.354H237.526V194.53C237.526 197.909 234.773 200.662 231.395 200.662Z" fill="#233363"/>
<path fill-rule="evenodd" clip-rule="evenodd" d="M245.171 171.983C243.738 169.48 243.021 166.124 243.021 161.881V159.458C243.021 153.804 244.295 149.697 246.855 147.138C249.414 144.578 253.521 143.304 259.175 143.304H287.524V148.48C287.524 151.859 284.771 154.612 281.392 154.612H262.406C259.175 154.612 257.559 156.227 257.559 159.458V161.073C257.559 164.304 259.175 165.919 262.406 165.919H276.944C282.223 165.919 286.102 167.159 288.582 169.639C289.253 170.311 289.845 171.096 290.334 171.983C291.767 174.486 292.484 177.841 292.484 182.085V184.508C292.484 190.162 291.21 194.268 288.65 196.828C286.091 199.388 281.984 200.662 276.33 200.662H243.146V195.486C243.146 192.107 245.899 189.354 249.278 189.354H273.088C276.319 189.354 277.934 187.739 277.934 184.508V182.892C277.934 179.662 276.319 178.046 273.088 178.046H258.549C253.271 178.046 249.391 176.806 246.912 174.326C246.24 173.655 245.649 172.87 245.16 171.983H245.171Z" fill="#233363"/>
<path fill-rule="evenodd" clip-rule="evenodd" d="M3.10022 172.79C1.66684 170.288 0.950134 166.932 0.950134 162.689V160.265C0.950134 154.612 2.22425 150.505 4.78385 147.945C7.34346 145.386 11.4502 144.111 17.1041 144.111H45.4532V149.288C45.4532 152.666 42.7003 155.419 39.3216 155.419H20.335C17.1042 155.419 15.4887 157.035 15.4887 160.265V161.881C15.4887 165.112 17.1042 166.727 20.335 166.727H34.8735C40.152 166.727 44.0312 167.967 46.5112 170.447C47.1824 171.13 47.7739 171.903 48.2631 172.79C49.6965 175.293 50.4132 178.649 50.4132 182.892V185.315C50.4132 190.969 49.139 195.076 46.5794 197.636C44.0198 200.195 39.9131 201.469 34.2592 201.469H1.08664V196.293C1.08664 192.915 3.83966 190.162 7.21834 190.162H31.0284C34.2592 190.162 35.8746 188.546 35.8746 185.315V183.7C35.8746 180.469 34.2592 178.854 31.0284 178.854H16.4898C11.2114 178.854 7.33209 177.614 4.85211 175.134C4.18092 174.463 3.58939 173.678 3.10022 172.79Z" fill="#233363"/>
<path d="M72.3917 144.123H57.8531V200.673H72.3917V144.123Z" fill="#233363"/>
<path fill-rule="evenodd" clip-rule="evenodd" d="M335.167 195.6C335.645 195.577 335.872 195.429 335.872 195.145C335.861 194.837 335.61 194.712 335.133 194.735C328.489 195.065 322.903 196.623 318.353 199.411C313.814 202.198 311.653 205.849 311.88 210.377C312.051 213.744 313.416 216.452 315.975 218.5C318.535 220.547 322.278 221.446 327.181 221.196L330.059 221.048C333.961 220.854 336.976 217.51 336.782 213.619L336.589 209.74C336.532 208.614 335.565 207.749 334.45 207.806L329.126 208.068C325.952 208.227 323.597 207.988 322.073 207.34C320.549 206.691 319.741 205.497 319.65 203.768C319.502 200.787 320.799 198.762 323.54 197.716C326.282 196.658 330.161 195.964 335.155 195.611L335.167 195.6Z" fill="#233363"/>
<defs>
<linearGradient id="paint0_linear_1_68" x1="148.054" y1="5.73326" x2="183.797" y2="63.9445" gradientUnits="userSpaceOnUse">
<stop stop-color="#9BC31F"/>
<stop offset="0.55" stop-color="#0AAAB1"/>
<stop offset="1" stop-color="#2584BF"/>
</linearGradient>
</defs>
</svg>
