<svg width="265" height="88" viewBox="0 0 265 88" fill="none" xmlns="http://www.w3.org/2000/svg">
<path d="M264.064 75.9635C263.959 76.5427 243.423 70.4831 217.426 71.0903C203.791 71.4004 192.634 73.4522 185.182 75.1956C185.185 75.8055 185.073 76.8935 184.341 77.8257C184.155 78.0678 183.301 79.0835 180.908 79.3891C176.341 79.984 169.727 77.5843 168.333 77.0527C162.641 77.1331 156.643 77.0485 150.356 76.7446C144.684 76.4771 139.249 76.0607 134.101 75.5289C134.735 77.5741 135.218 80.0872 134.113 80.9534C133.762 81.2273 133.503 81.1738 132.828 81.2778C130.913 81.6204 129.581 82.7368 127.23 84.763C125.09 86.5938 125.07 87.0792 124.408 87.0689C122.733 87.0472 121.523 83.9947 120.482 81.3828C119.455 78.7941 118.887 76.3749 118.555 74.2973C111.846 73.3436 106.48 72.2002 102.872 71.3377C97.1934 69.9879 96.4275 69.5161 87.7563 67.3402C79.1756 65.1899 78.9123 65.4298 75.4076 64.2035C74.0704 63.7469 69.0499 61.9351 62.8893 58.485C59.7482 56.7329 57.1993 55.0303 55.2971 53.6677C55.6084 54.3646 56.5636 56.7952 55.7437 59.7652C54.8364 63.0443 52.4194 64.679 51.8228 65.0603C51.3382 65.9448 50.5622 67.2378 49.3805 68.652C47.8376 70.514 45.3039 73.5298 43.0904 73.0613C42.4051 72.9266 41.8537 72.4565 40.4723 70.2197C37.2714 65.0134 35.9614 60.5182 35.8054 59.9634C35.0567 57.3554 34.568 55.6263 34.44 53.1741C34.1927 48.8615 35.1849 45.351 36.0061 43.2064C33.9667 41.7068 30.9255 39.3938 27.3533 36.4003C25.2799 34.675 17.8714 28.3775 8.79948 18.0744C-0.316494 7.71952 0.0270461 5.9507 0.387799 5.22769C1.68128 2.58804 7.89938 3.20624 15.3094 3.96497C23.0064 4.74589 28.1478 6.1991 39.6481 9.01747C45.1176 10.3473 49.5371 11.3805 52.2343 12.0053C53.338 10.3138 55.2806 7.79863 58.3869 5.59279C62.1335 2.91976 65.6117 2.09583 68.3664 1.47984C72.6483 0.509817 80.6229 -1.2825 82.673 2.04685C84.1582 4.47011 81.8846 8.50234 80.6984 10.3473C80.6099 11.5598 80.2063 14.6474 77.9129 17.5741C75.1912 21.0475 71.6203 22.0613 70.5066 22.3358C73.2588 23.3887 77.3097 25.1033 81.8973 27.7552C86.8833 30.6573 87.7254 31.8971 95.3032 37.3191C106.641 45.4147 111.856 47.7136 113.375 48.3589C117.353 50.053 120.793 51.0252 123.095 51.5972C123.754 50.2319 125.01 48.0726 127.232 46.0884C128.379 45.0767 131.781 42.0313 133.9 43.0427C135.002 43.5702 134.579 44.6491 136.114 47.1059C137.853 49.8759 139.368 50.0487 139.701 51.7733C139.881 52.7277 139.724 54.2545 137.739 56.5025C140.781 57.4997 145.245 58.8596 150.722 60.0934C158.384 61.827 163.878 62.3781 172.279 63.2989C178.176 63.9444 187.272 64.9637 199 66.3536C200.844 64.8122 203.454 62.9769 206.893 61.5327C212.798 59.0378 218.149 58.9199 221.202 59.1151C221.528 59.4823 223.414 61.6652 223.015 64.5971C222.854 65.789 222.359 66.7098 221.991 67.2538C226.968 67.9731 233.67 69.0229 241.539 70.5791C252.821 72.7859 264.128 75.5298 264.046 75.9583L264.064 75.9635Z" fill="white"/>
</svg>
