<svg width="364" height="361" viewBox="0 0 364 361" fill="none" xmlns="http://www.w3.org/2000/svg">
<path d="M242.875 304.168C245.112 303.557 248.613 302.574 252.609 300.226C255.406 298.59 258.412 296.302 259.551 295.422C264.31 291.73 266.204 289.78 267.735 290.456C268.202 290.66 268.657 291.118 268.751 291.645C268.881 292.38 268.287 293.048 265.527 295.567C263.602 297.329 263.369 297.46 262.802 298.145C261.715 299.413 261.835 300.105 260.691 301.375C260.251 301.86 259.589 302.578 258.586 303.097C257.03 303.899 255.852 303.579 254.116 303.725C252.429 303.883 251.43 304.367 249.04 305.422C243.586 307.831 235.884 310.956 234.324 311.588C225.109 315.3 220.533 316.065 218.421 316.363C216.517 316.626 214.933 316.738 213.837 316.788C214.66 317.255 215.286 317.71 215.717 318.059C216.828 318.953 217.878 319.826 218.297 321.251C218.467 321.863 218.299 321.775 218.473 322.352C219.055 324.254 220.809 324.754 220.604 325.632C220.504 326.054 220.02 326.287 219.795 326.405C219.116 326.738 218.391 326.557 217.987 326.43C213.537 325.091 207.531 320.858 207.531 320.858C206.653 320.243 205.247 319.254 203.448 318.034C200.528 318.192 197.295 318.225 193.774 318.037C189.964 317.834 186.49 317.396 183.416 316.858C183.666 318.137 184.098 320.186 184.841 322.657C186.436 328.041 187.888 330.216 187.101 330.985C186.061 332.003 182.021 329.637 179.909 328.087C176.031 325.263 172.395 320.709 170.743 317.79C170.548 317.423 170.003 316.46 169.007 315.415C167.595 313.937 166.13 313.247 165.644 313.013C162.002 311.255 158.553 309.078 154.928 307.293C149.956 304.838 145.611 302.688 141.4 298.775C138.789 296.366 135.205 293.02 136.062 290.765C136.898 288.572 141.475 288.479 147.799 288.341C151.218 288.278 156.053 288.368 163.488 289.535C168.143 290.258 171.931 291.082 174.504 291.675C175.624 290.296 177.349 288.407 179.762 286.582C185.882 281.983 193.982 279.671 194.977 281.276C195.239 281.685 194.717 282.623 193.69 284.471C191.914 287.671 190.691 288.742 189.357 291.16C188.827 292.11 188.106 293.593 187.524 295.594C190.133 296.657 192.894 297.687 195.799 298.696C199.026 299.816 202.148 300.777 205.141 301.618C206.615 300.447 208.728 298.916 211.44 297.413C214.481 295.745 219.522 293.428 220.251 294.452C220.463 294.736 220.281 295.256 219.993 296.061C219.61 297.162 219.142 297.573 218.682 298.326C217.309 300.57 218.109 302.218 216.984 302.753C216.426 303.014 215.853 302.799 215.179 303.359C214.9 303.592 214.739 303.845 214.643 304.026C215.794 304.329 217.37 304.698 219.251 304.999C220.079 305.134 222.499 305.498 225.735 305.635C230.453 305.819 236.046 306.038 242.888 304.176L242.875 304.168Z" fill="white"/>
<path d="M52.6232 230.818C53.0505 233.05 53.7446 236.535 55.9304 240.727C57.4472 243.653 59.6742 246.901 60.5172 248.128C64.1125 253.273 66.0884 255.39 65.1557 256.738C64.8717 257.154 64.2979 257.499 63.7169 257.502C62.8737 257.507 62.1998 256.835 59.684 253.777C57.9352 251.656 57.7988 251.401 57.1079 250.756C55.8059 249.516 55.0062 249.511 53.7115 248.202C53.2114 247.697 52.4747 246.948 52.0159 245.909C51.2913 244.29 51.7976 243.231 51.8232 241.548C51.85 239.922 51.4129 238.878 50.5049 236.433C48.434 230.858 45.8078 222.988 45.285 221.404C42.1856 212.019 41.8637 207.539 41.7722 205.483C41.6939 203.641 41.7534 202.11 41.8272 201.056C41.2086 201.764 40.6166 202.283 40.1781 202.62C39.0437 203.522 37.9346 204.384 36.2906 204.533C35.5754 204.6 35.7035 204.458 35.0319 204.516C32.8213 204.733 32.0601 206.339 31.0829 205.997C30.6118 205.828 30.4089 205.325 30.3123 205.096C30.0309 204.394 30.2968 203.742 30.4901 203.379C32.5116 199.383 37.9591 194.374 37.9591 194.374C38.7564 193.649 40.0334 192.464 41.6052 190.963C41.7602 188.168 42.1013 185.08 42.7347 181.768C43.4105 178.184 44.3121 174.95 45.2705 172.124C43.8028 172.142 41.4581 172.218 38.6025 172.51C32.3632 173.131 29.7454 174.135 28.9713 173.268C27.9459 172.093 31.0762 168.671 33.0575 166.908C36.6903 163.694 42.2171 160.995 45.6853 159.917C46.1239 159.785 47.2787 159.437 48.5557 158.663C50.3762 157.563 51.3367 156.289 51.6424 155.867C54.0527 152.697 56.8883 149.797 59.3252 146.643C62.6549 142.322 65.586 138.568 70.4655 135.214C73.4845 133.14 77.6536 130.286 80.0995 131.489C82.4658 132.64 82.0471 137.023 81.458 143.052C81.1422 146.305 80.4615 150.893 78.291 157.764C76.9314 162.07 75.5804 165.542 74.6028 167.869C76.0329 169.172 77.9484 171.119 79.7165 173.738C84.1681 180.325 85.8423 188.429 83.9167 189.108C83.4311 189.284 82.4431 188.637 80.4804 187.35C77.0863 185.115 76.0271 183.787 73.4532 182.111C72.4434 181.468 70.8635 180.519 68.6906 179.621C67.2056 181.924 65.7062 184.368 64.2406 186.963C62.6106 189.846 61.1582 192.656 59.8737 195.348C61.0259 196.941 62.4981 199.203 63.8603 202.049C65.3867 205.224 67.3923 210.403 66.1843 210.922C65.8291 211.07 65.282 210.815 64.4039 210.405C63.2213 209.858 62.7998 209.347 62.0014 208.782C59.6546 207.102 57.6856 207.585 57.2327 206.419C57.0154 205.851 57.3102 205.329 56.7619 204.607C56.524 204.306 56.2619 204.102 56.0626 203.975C55.5998 205.025 55.0052 206.457 54.4433 208.191C54.1931 208.965 53.5019 211.195 52.9723 214.256C52.2143 218.702 51.3124 223.99 52.6317 230.805L52.6232 230.818Z" fill="white"/>
<path d="M195.289 86.8C193.176 86.8927 189.864 87.0807 185.7 88.5187C182.798 89.5282 179.516 91.1355 178.284 91.7514C173.07 94.3695 170.865 95.8972 169.733 94.8594C169.39 94.5477 169.138 93.9763 169.201 93.4376C169.294 92.6754 170.021 92.1488 173.144 90.2347C175.327 88.9171 175.578 88.8157 176.257 88.277C177.568 87.2444 177.679 86.5124 179.043 85.5136C179.572 85.1223 180.347 84.551 181.376 84.254C182.966 83.8097 183.874 84.4066 185.434 84.6532C186.947 84.8878 187.951 84.6306 190.326 84.1261C195.75 82.9672 203.349 81.5876 204.877 81.3281C213.944 79.7253 218.136 80.0037 220.063 80.2033C221.779 80.3811 223.191 80.6266 224.161 80.8333C223.592 80.1724 223.182 79.5563 222.915 79.125C222.213 77.9689 221.565 76.8466 221.624 75.3161C221.649 74.6602 221.77 74.7931 221.792 74.1722C221.862 72.1259 220.484 71.2113 220.912 70.3634C221.117 69.9527 221.604 69.8332 221.843 69.7801C222.534 69.6038 223.101 69.9457 223.425 70.1705C226.874 72.5531 230.829 78.1888 230.829 78.1888C231.41 79.0067 232.343 80.3283 233.518 81.9725C236.085 82.4863 238.9 83.1958 241.875 84.2121C245.119 85.3058 247.985 86.5516 250.497 87.7962C250.665 86.4469 250.882 84.2883 250.979 81.6429C251.175 75.8495 250.58 73.3236 251.485 72.7233C252.692 71.942 255.471 75.2606 256.86 77.3023C259.382 81.0546 261.187 86.4605 261.742 89.7825C261.812 90.2004 261.988 91.3021 262.544 92.5706C263.333 94.3802 264.387 95.4241 264.748 95.766C267.381 98.3755 269.712 101.372 272.328 104.008C275.917 107.637 279.025 110.791 281.519 115.702C283.059 118.737 285.188 122.93 283.769 125.013C282.391 127.031 278.399 126.058 272.906 124.745C269.928 124.026 265.778 122.803 259.683 119.912C255.87 118.101 252.823 116.405 250.78 115.216C249.401 116.355 247.349 117.849 244.724 119.127C238.067 122.34 230.378 122.804 229.99 120.951C229.897 120.481 230.605 119.662 232.056 118.028C234.535 115.218 235.899 114.425 237.776 112.297C238.514 111.46 239.579 110.139 240.666 108.255C238.722 106.588 236.637 104.906 234.426 103.218C231.957 101.348 229.548 99.6468 227.2 98.1148C225.575 98.9662 223.286 100.011 220.504 100.891C217.379 101.87 212.331 103.025 212 101.844C211.901 101.501 212.21 101.044 212.692 100.287C213.344 99.264 213.879 98.9512 214.498 98.3002C216.349 96.3605 216.144 94.5123 217.283 94.2479C217.835 94.1139 218.288 94.4582 219.018 94.0452C219.333 93.8725 219.547 93.6539 219.684 93.4981C218.78 92.923 217.524 92.198 215.979 91.4573C215.291 91.131 213.313 90.1898 210.551 89.3088C206.526 88.035 201.749 86.5062 195.28 86.8133L195.289 86.8Z" fill="white"/>
<path d="M243.459 163.056C242.531 161.551 241.061 159.196 238.445 156.765C236.618 155.061 234.253 153.35 233.357 152.705C229.564 150.01 227.682 149.036 227.878 147.761C227.94 147.371 228.189 146.95 228.569 146.763C229.097 146.52 229.732 146.813 232.219 148.303C233.959 149.354 234.123 149.477 234.745 149.761C235.944 150.282 236.442 150.057 237.643 150.635C238.102 150.852 238.79 151.179 239.398 151.808C240.331 152.776 240.32 153.702 240.801 154.942C241.263 156.151 241.836 156.777 243.131 158.292C246.084 161.777 250.064 166.757 250.867 167.754C255.59 173.71 257.121 176.906 257.782 178.391C258.373 179.72 258.786 180.86 259.052 181.645C259.238 180.942 259.458 180.391 259.633 179.999C260.084 178.997 260.544 178.04 261.541 177.442C261.964 177.188 261.949 177.328 262.35 177.08C263.688 176.269 263.697 174.875 264.417 174.829C264.766 174.809 265.039 175.113 265.173 175.255C265.554 175.684 265.588 176.247 265.568 176.57C265.464 180.107 263.465 185.388 263.465 185.388C263.18 186.159 262.712 187.392 262.147 188.955C262.864 191.055 263.561 193.421 264.14 196.03C264.768 198.857 265.147 201.488 265.363 203.847C266.288 203.391 267.753 202.643 269.483 201.597C273.262 199.298 274.637 197.783 275.38 198.2C276.37 198.756 275.399 202.189 274.652 204.066C273.291 207.494 270.558 211.113 268.678 212.922C268.443 213.145 267.809 213.731 267.221 214.683C266.389 216.02 266.157 217.235 266.078 217.652C265.487 220.692 264.536 223.653 263.91 226.69C263.054 230.85 262.304 234.461 260.194 238.364C258.89 240.764 257.077 244.11 255.169 243.94C253.322 243.792 252.308 240.457 250.913 235.873C250.157 233.394 249.239 229.822 248.594 224.147C248.191 220.586 248.029 217.644 247.96 215.64C246.669 215.117 244.868 214.251 242.986 212.866C238.215 209.362 234.771 203.921 235.801 202.86C236.062 202.596 236.887 202.767 238.507 203.126C241.317 203.757 242.388 204.42 244.5 204.887C245.338 205.066 246.618 205.283 248.266 205.305C248.536 203.18 248.768 200.938 248.924 198.611C249.109 196.003 249.21 193.528 249.235 191.172C248.033 190.332 246.43 189.125 244.734 187.449C242.825 185.58 240.026 182.379 240.657 181.623C240.827 181.414 241.265 181.431 241.934 181.465C242.857 181.511 243.269 181.773 243.945 181.943C245.936 182.482 247.039 181.541 247.679 182.266C247.983 182.609 247.941 183.086 248.512 183.45C248.751 183.602 248.984 183.675 249.138 183.698C249.132 182.799 249.075 181.568 248.927 180.129C248.865 179.492 248.639 177.649 248.072 175.253C247.243 171.776 246.264 167.624 243.427 163.017L243.459 163.056Z" fill="white"/>
<path d="M168.971 246.723C170.54 247.367 173.016 248.346 176.358 248.756C178.706 249.056 181.446 249.064 182.495 249.059C186.859 249.037 188.815 248.751 189.419 249.826C189.605 250.15 189.662 250.616 189.499 250.96C189.265 251.446 188.629 251.564 185.93 251.787C184.037 251.945 183.848 251.918 183.231 252.067C182.044 252.319 181.813 252.77 180.594 252.983C180.132 253.063 179.432 253.196 178.612 253.047C177.353 252.825 176.809 252.124 175.72 251.43C174.67 250.762 173.872 250.609 172.027 250.163C167.807 249.138 161.94 247.531 160.771 247.198C153.792 245.257 150.769 243.669 149.403 242.912C148.179 242.225 147.204 241.586 146.535 241.142C146.823 241.773 146.979 242.321 147.088 242.707C147.345 243.711 147.592 244.671 147.212 245.68C147.055 246.103 146.982 245.982 146.834 246.391C146.347 247.743 147.164 248.805 146.662 249.213C146.421 249.415 146.039 249.34 145.859 249.3C145.32 249.18 144.966 248.768 144.786 248.523C142.762 245.778 141.064 240.702 141.064 240.702C140.821 239.969 140.407 238.772 139.904 237.275C138.13 236.072 136.222 234.67 134.256 233.008C132.12 231.2 130.265 229.422 128.71 227.76C128.304 228.603 127.673 229.975 127.046 231.723C125.653 235.523 125.571 237.412 124.769 237.499C123.723 237.617 122.376 234.482 121.801 232.659C120.751 229.321 120.579 225.104 120.878 222.699C120.915 222.406 121.012 221.609 120.894 220.563C120.706 219.099 120.142 218.049 119.973 217.698C118.602 215.071 117.521 212.31 116.172 209.678C114.322 206.073 112.709 202.918 111.923 198.814C111.442 196.286 110.778 192.783 112.248 191.852C113.679 190.952 116.399 192.926 120.153 195.652C122.19 197.116 124.971 199.316 128.817 203.277C131.224 205.742 133.096 207.905 134.333 209.364C135.589 209.062 137.4 208.74 139.607 208.764C145.166 208.83 150.911 211.068 150.804 212.437C150.768 212.788 150.071 213.091 148.668 213.71C146.244 214.762 145.075 214.839 143.256 215.642C142.538 215.95 141.483 216.492 140.265 217.379C141.329 219.139 142.508 220.953 143.766 222.819C145.173 224.891 146.582 226.814 147.966 228.628C149.341 228.608 151.234 228.655 153.465 228.993C155.968 229.373 159.911 230.277 159.895 231.181C159.896 231.444 159.577 231.651 159.06 231.994C158.362 232.446 157.904 232.491 157.306 232.726C155.542 233.414 155.295 234.713 154.395 234.513C153.965 234.426 153.707 234.039 153.074 234.065C152.804 234.079 152.605 234.158 152.47 234.222C153.022 234.909 153.78 235.802 154.745 236.809C155.173 237.25 156.428 238.534 158.269 240.042C160.946 242.231 164.125 244.833 168.937 246.776L168.971 246.723Z" fill="white"/>
<path d="M120.619 123.62C118.933 123.629 116.273 123.672 113.015 124.567C110.734 125.187 108.196 126.242 107.235 126.638C103.207 128.331 101.516 129.345 100.539 128.592C100.237 128.363 100.001 127.97 100.028 127.576C100.069 127.043 100.595 126.686 103.011 125.442C104.687 124.568 104.883 124.525 105.395 124.16C106.394 123.47 106.432 122.971 107.479 122.294C107.88 122.045 108.466 121.653 109.284 121.482C110.537 121.216 111.306 121.649 112.573 121.859C113.805 122.064 114.593 121.912 116.479 121.619C120.768 120.951 126.803 120.182 128.015 120.038C135.21 119.148 138.598 119.456 140.158 119.646C141.55 119.804 142.695 120.029 143.485 120.196C142.982 119.726 142.623 119.292 142.38 118.97C141.751 118.14 141.162 117.335 141.122 116.283C141.112 115.829 141.21 115.91 141.197 115.491C141.132 114.068 139.977 113.389 140.271 112.81C140.413 112.527 140.796 112.454 140.984 112.424C141.519 112.316 142.009 112.572 142.275 112.742C145.195 114.489 148.706 118.535 148.706 118.535C149.212 119.118 150.041 120.075 151.101 121.254C153.203 121.677 155.509 122.249 157.964 123.027C160.638 123.871 163.017 124.825 165.095 125.756C165.149 124.82 165.192 123.316 165.122 121.46C164.954 117.414 164.309 115.64 165.008 115.245C165.932 114.732 168.369 117.123 169.592 118.574C171.842 121.257 173.618 125.095 174.262 127.428C174.338 127.719 174.555 128.492 175.077 129.403C175.816 130.676 176.728 131.443 177.035 131.695C179.303 133.587 181.354 135.732 183.619 137.659C186.711 140.281 189.411 142.579 191.705 146.074C193.118 148.224 195.081 151.211 194.063 152.635C193.078 154.006 189.816 153.236 185.31 152.16C182.877 151.582 179.458 150.619 174.387 148.437C171.221 147.075 168.669 145.805 166.955 144.919C165.914 145.675 164.358 146.682 162.312 147.49C157.148 149.561 150.981 149.687 150.565 148.376C150.457 148.047 150.983 147.485 152.052 146.392C153.878 144.492 154.937 143.972 156.318 142.536C156.865 141.969 157.637 141.079 158.409 139.778C156.75 138.572 154.98 137.334 153.097 136.098C151.002 134.727 148.965 133.468 146.993 132.343C145.733 132.885 143.969 133.573 141.774 134.118C139.318 134.72 135.339 135.398 134.994 134.562C134.906 134.32 135.109 134.001 135.452 133.491C135.913 132.795 136.324 132.59 136.787 132.156C138.162 130.847 137.885 129.551 138.786 129.396C139.226 129.322 139.603 129.58 140.169 129.306C140.407 129.196 140.579 129.044 140.668 128.933C139.904 128.521 138.857 127.966 137.569 127.408C137 127.158 135.351 126.463 133.086 125.768C129.784 124.767 125.849 123.588 120.654 123.623L120.619 123.62Z" fill="white"/>
</svg>
