<svg width="130" height="207" viewBox="0 0 130 207" fill="none" xmlns="http://www.w3.org/2000/svg">
<path d="M107.276 154.587C107.867 158.612 108.76 164.965 107.558 173.389C106.719 179.273 104.874 186.114 104.153 188.708C101.109 199.59 99.0097 204.371 101.41 206.105C102.136 206.627 103.312 206.893 104.328 206.538C105.742 206.05 106.514 204.492 108.957 197.806C110.672 193.142 110.761 192.654 111.521 191.141C113.006 188.255 114.343 187.757 115.76 184.754C116.303 183.618 117.11 181.892 117.294 179.847C117.57 176.666 116.088 175.171 115.047 172.336C114.025 169.575 114.151 167.564 114.24 162.89C114.435 152.171 114.225 137.28 114.181 134.271C113.874 116.495 111.758 108.674 110.686 105.134C109.727 101.947 108.703 99.3817 107.973 97.6397C109.442 98.4731 110.77 98.9848 111.694 99.3133C114.158 100.169 116.542 100.955 119.431 100.231C120.66 99.9216 120.377 99.7301 121.548 99.4545C125.432 98.5272 127.683 100.753 129.114 99.6011C129.801 99.0424 129.859 98.0748 129.889 97.621C129.952 96.2616 129.093 95.3114 128.562 94.7904C122.737 89.2101 110.507 83.9911 110.507 83.9911C108.727 83.2242 105.862 81.9891 102.283 80.4113C100.356 75.7546 97.9381 70.7249 94.9054 65.4962C91.6178 59.8181 88.1969 54.8718 84.8825 50.6409C87.4017 49.7916 91.4283 48.5083 96.4377 47.2934C107.418 44.6024 112.441 44.7568 113.232 42.7907C114.268 40.1905 106.923 36.2495 102.517 34.4571C94.4474 31.1829 83.4368 29.916 76.9067 30.1956C76.0955 30.2208 73.9354 30.338 71.2811 29.7962C67.5583 29.0262 65.1518 27.4286 64.3656 26.9101C58.4052 22.9651 51.8441 19.7386 45.8277 15.8576C37.5803 10.5327 30.3866 5.90393 20.1222 3.14073C13.7798 1.43511 4.98712 -0.916511 1.55561 2.58478C-1.77777 5.97398 1.54679 13.1552 6.11286 23.0072C8.59588 28.3487 12.4595 35.7191 20.2494 46.074C25.1098 52.5633 29.4875 57.6401 32.5059 61.0178C30.8515 64.0667 28.7627 68.5455 27.3114 74.0347C23.6617 87.8949 25.6387 102.636 29.311 102.627C30.2441 102.623 31.5502 100.938 34.1182 97.5862C38.5593 91.7726 39.576 88.8726 42.9353 84.4879C44.2534 82.7568 46.3783 80.233 49.5667 77.3957C53.4649 80.4123 57.4546 83.6786 61.4897 87.1827C65.9735 91.108 70.1078 94.9817 73.9065 98.7881C72.9068 102.184 71.7386 106.931 71.1082 112.545C70.4024 118.857 70.0691 128.832 72.4584 129C73.1237 129.045 73.9324 128.283 75.1636 127.069C76.8631 125.418 77.2729 124.306 78.2788 122.867C81.2842 118.597 84.8893 118.245 84.9697 115.996C85.0038 114.895 84.176 114.199 84.7066 112.627C84.9057 111.981 85.2643 111.474 85.5147 111.156C86.9363 112.655 88.7864 114.727 90.7773 117.347C91.6501 118.507 94.171 121.874 96.8647 126.749C100.801 133.843 105.456 142.274 107.293 154.631L107.276 154.587Z" fill="white"/>
</svg>
